<svg width="247" height="48" viewBox="0 0 247 48" fill="none" xmlns="http://www.w3.org/2000/svg">
<path d="M80.4886 12.7273H75.5909V27.3636H75.3864L65.3409 12.7273H61.0227V36H65.9432V21.3523H66.1136L76.2386 36H80.4886V12.7273ZM95.6562 28.5682C95.6676 30.9091 94.0653 32.1364 92.3267 32.1364C90.4972 32.1364 89.3153 30.8523 89.304 28.7955V18.5455H84.4631V29.6591C84.4744 33.7386 86.8608 36.2273 90.3722 36.2273C92.9972 36.2273 94.8835 34.875 95.6676 32.8295H95.8494V36H100.497V18.5455H95.6562V28.5682ZM113.653 18.5455H110.369V14.3636H105.528V18.5455H103.142V22.1818H105.528V31.2727C105.506 34.6932 107.835 36.3864 111.347 36.2386C112.597 36.1932 113.483 35.9432 113.972 35.7841L113.21 32.1818C112.972 32.2273 112.46 32.3409 112.006 32.3409C111.04 32.3409 110.369 31.9773 110.369 30.6364V22.1818H113.653V18.5455ZM116.807 36H121.648V26.125C121.648 23.9773 123.216 22.5 125.352 22.5C126.023 22.5 126.943 22.6136 127.398 22.7614V18.4659C126.966 18.3636 126.364 18.2955 125.875 18.2955C123.92 18.2955 122.318 19.4318 121.682 21.5909H121.5V18.5455H116.807V36ZM129.901 36H134.741V18.5455H129.901V36ZM132.332 16.2955C133.776 16.2955 134.957 15.1932 134.957 13.8409C134.957 12.5 133.776 11.3977 132.332 11.3977C130.901 11.3977 129.719 12.5 129.719 13.8409C129.719 15.1932 130.901 16.2955 132.332 16.2955ZM143.46 25.9091C143.472 23.6591 144.812 22.3409 146.767 22.3409C148.71 22.3409 149.881 23.6136 149.869 25.75V36H154.71V24.8864C154.71 20.8182 152.324 18.3182 148.688 18.3182C146.097 18.3182 144.222 19.5909 143.438 21.625H143.233V18.5455H138.619V36H143.46V25.9091ZM163.503 36.3295C166.082 36.3295 167.753 35.2045 168.605 33.5795H168.741V36H173.332V24.2273C173.332 20.0682 169.81 18.3182 165.923 18.3182C161.741 18.3182 158.991 20.3182 158.321 23.5L162.798 23.8636C163.128 22.7045 164.162 21.8523 165.901 21.8523C167.548 21.8523 168.491 22.6818 168.491 24.1136V24.1818C168.491 25.3068 167.298 25.4545 164.264 25.75C160.81 26.0682 157.707 27.2273 157.707 31.125C157.707 34.5795 160.173 36.3295 163.503 36.3295ZM164.889 32.9886C163.401 32.9886 162.332 32.2955 162.332 30.9659C162.332 29.6023 163.457 28.9318 165.162 28.6932C166.219 28.5455 167.946 28.2955 168.526 27.9091V29.7614C168.526 31.5909 167.014 32.9886 164.889 32.9886ZM181.929 12.7273H177.088V36H181.929V12.7273ZM188.795 42.5114C192.398 42.5114 194.318 40.6818 195.295 37.8864L202.08 18.5682L196.955 18.5455L193.307 31.3636H193.125L189.511 18.5455H184.42L190.682 36.5L190.398 37.2386C189.716 38.8182 188.545 38.9318 186.841 38.3977L185.75 42.0227C186.443 42.3068 187.568 42.5114 188.795 42.5114ZM219.08 23.5227C218.648 20.3068 216.057 18.3182 211.648 18.3182C207.182 18.3182 204.239 20.3864 204.25 23.75C204.239 26.3636 205.886 28.0568 209.295 28.7386L212.318 29.3409C213.841 29.6477 214.534 30.2045 214.557 31.0795C214.534 32.1136 213.409 32.8523 211.716 32.8523C209.989 32.8523 208.841 32.1136 208.545 30.6932L203.784 30.9432C204.239 34.2841 207.08 36.3409 211.705 36.3409C216.227 36.3409 219.466 34.0341 219.477 30.5909C219.466 28.0682 217.818 26.5568 214.432 25.8636L211.273 25.2273C209.648 24.875 209.045 24.3182 209.057 23.4773C209.045 22.4318 210.227 21.75 211.727 21.75C213.409 21.75 214.409 22.6705 214.648 23.7955L219.08 23.5227ZM222.526 36H227.366V18.5455H222.526V36ZM224.957 16.2955C226.401 16.2955 227.582 15.1932 227.582 13.8409C227.582 12.5 226.401 11.3977 224.957 11.3977C223.526 11.3977 222.344 12.5 222.344 13.8409C222.344 15.1932 223.526 16.2955 224.957 16.2955ZM245.767 23.5227C245.335 20.3068 242.744 18.3182 238.335 18.3182C233.869 18.3182 230.926 20.3864 230.938 23.75C230.926 26.3636 232.574 28.0568 235.983 28.7386L239.006 29.3409C240.528 29.6477 241.222 30.2045 241.244 31.0795C241.222 32.1136 240.097 32.8523 238.403 32.8523C236.676 32.8523 235.528 32.1136 235.233 30.6932L230.472 30.9432C230.926 34.2841 233.767 36.3409 238.392 36.3409C242.915 36.3409 246.153 34.0341 246.165 30.5909C246.153 28.0682 244.506 26.5568 241.119 25.8636L237.96 25.2273C236.335 24.875 235.733 24.3182 235.744 23.4773C235.733 22.4318 236.915 21.75 238.415 21.75C240.097 21.75 241.097 22.6705 241.335 23.7955L245.767 23.5227Z" fill="url(#paint0_linear)"/>
<path d="M41 40.9C45.3 36.6 48 30.6 48 24C48 17.4 45.3 11.4 41 7.1L40.9 7C36.6 2.7 30.6 0 24 0C17.4 0 11.4 2.7 7.1 7L7 7.1C2.7 11.4 0 17.4 0 24C0 30.6 2.7 36.6 7 40.9L7.1 41C11.4 45.3 17.4 48 24 48C30.6 48 36.6 45.3 41 40.9C40.9 41 41 40.9 41 40.9ZM10.1 41C14.7 40 18.3 36.3 19 31.6C20.3 32.4 21.8 33 23.4 33.1C26.9 36.7 27 42.3 23.6 46C18.5 45.9 13.8 44 10.1 41ZM37.9 7C33.3 8 29.7 11.7 29 16.4C27.7 15.6 26.2 15 24.6 14.9C21.1 11.3 21 5.7 24.4 2C29.5 2.1 34.2 4 37.9 7ZM24 31.1C20.1 31.1 16.9 27.9 16.9 24C16.9 20.1 20.1 16.9 24 16.9C27.9 16.9 31.1 20.1 31.1 24C31.1 27.9 27.9 31.1 24 31.1ZM32.9 22.2C32.6 20.6 31.9 19.2 30.8 18.1C30.9 13.1 34.8 9.1 39.8 8.8C43.1 12.3 45.3 16.8 45.8 21.9C44 20.7 41.8 20 39.6 20C37.2 20 34.9 20.7 32.9 22.2ZM22.2 15.1C20.6 15.4 19.2 16.1 18.1 17.2C13.1 17.1 9.1 13.2 8.8 8.2C12.3 4.9 16.8 2.7 21.9 2.2C19.2 6 19.4 11.2 22.2 15.1ZM16.4 19C15.6 20.3 15 21.8 14.9 23.4C11.3 26.9 5.7 27 2 23.6C2.1 18.5 3.9 13.8 7 10.1C7.9 14.7 11.7 18.3 16.4 19ZM8.3 28C10.7 28 13 27.3 15 25.8C15.3 27.4 16 28.8 17.1 29.9C17 34.9 13.1 38.9 8.1 39.2C4.8 35.7 2.5 31.2 2.1 26.1C4 27.4 6.2 28 8.3 28ZM25.8 32.9C27.4 32.6 28.8 31.9 29.9 30.8C34.9 30.9 38.9 34.8 39.2 39.8C35.7 43.1 31.2 45.4 26.1 45.8C28.8 42 28.6 36.8 25.8 32.9ZM31.6 29C32.4 27.7 33 26.2 33.1 24.6C34.9 22.9 37.2 21.9 39.7 21.9C42.1 21.9 44.3 22.8 46 24.4C45.9 29.5 44.1 34.2 41 37.9C40.1 33.3 36.3 29.7 31.6 29Z" fill="#E85D75"/>
<defs>
<linearGradient id="paint0_linear" x1="-4.59716" y1="63.3427" x2="280.16" y2="-49.3691" gradientUnits="userSpaceOnUse">
<stop stop-color="#E85D75"/>
<stop offset="1" stop-color="#2F65F0"/>
</linearGradient>
</defs>
</svg>
