<svg width="29" height="29" viewBox="0 0 29 29" fill="none" xmlns="http://www.w3.org/2000/svg">
<path d="M28.1304 15.2648C28.1304 14.5144 27.5197 13.9037 26.7692 13.9037H25.8618C25.5133 13.9037 25.1953 14.0353 24.9543 14.2512C24.7134 14.0353 24.3954 13.9037 24.0469 13.9037H23.1395C22.791 13.9037 22.473 14.0353 22.2321 14.2512C21.9911 14.0353 21.6731 13.9037 21.3246 13.9037H20.4172C20.0687 13.9037 19.7507 14.0353 19.5098 14.2512C19.356 14.1138 19.169 14.0158 18.9644 13.9586C20.7253 12.5076 21.7783 10.3325 21.7783 8.0054C21.7783 7.77718 21.7665 7.53898 21.7416 7.27764L21.6622 6.43327L21.0038 6.96775C20.939 7.02038 20.8813 7.05441 20.8283 7.07165C20.6803 7.11975 20.4503 7.06893 20.2058 7.01539C19.9948 6.96911 19.7552 6.91648 19.5098 6.91648C19.2643 6.91648 19.0247 6.96911 18.8138 7.01539C18.5692 7.06893 18.3378 7.11884 18.1913 7.07165C18.0316 7.01993 17.8718 6.83889 17.7031 6.64697C17.557 6.48137 17.4063 6.30986 17.2162 6.17148C17.0239 6.03128 16.8124 5.93963 16.6083 5.8507C16.3755 5.74952 16.1554 5.65379 16.0588 5.52085C15.9644 5.39109 15.9408 5.15334 15.9163 4.90198C15.8946 4.67921 15.8719 4.44918 15.7979 4.22096C15.7267 4.00091 15.6114 3.80672 15.5003 3.61888C15.3687 3.39792 15.2448 3.18876 15.2448 3.01453C15.2448 2.8403 15.3687 2.63114 15.4998 2.40973C15.611 2.22189 15.7262 2.02815 15.7975 1.8081C15.8719 1.57897 15.895 1.34758 15.9172 1.12435L15.9867 0.524085L15.5747 0.441962C15.0738 0.342599 14.5661 0.292236 14.0652 0.292236C9.81205 0.292236 6.35201 3.75227 6.35201 8.0054C6.35201 9.91645 7.05437 11.6633 8.20953 13.0121C8.04437 13.0017 7.87877 12.9963 7.71316 12.9963C3.46003 12.9963 0 16.4563 0 20.7094C0 24.9626 3.46003 28.4226 7.71316 28.4226C10.1991 28.4226 12.5126 27.2221 13.9536 25.2393C13.9554 25.2416 13.9572 25.2443 13.959 25.2466C13.743 25.4875 13.6115 25.8056 13.6115 26.154V27.0614C13.6115 27.8119 14.2222 28.4226 14.9726 28.4226H15.88C16.2285 28.4226 16.5465 28.291 16.7875 28.075C17.0284 28.291 17.3464 28.4226 17.6949 28.4226H18.6023C18.9508 28.4226 19.2688 28.291 19.5098 28.075C19.7507 28.291 20.0687 28.4226 20.4172 28.4226H21.3246C21.6731 28.4226 21.9911 28.291 22.2321 28.075C22.473 28.291 22.791 28.4226 23.1395 28.4226H24.0469C24.3954 28.4226 24.7134 28.291 24.9543 28.075C25.1953 28.291 25.5133 28.4226 25.8618 28.4226H26.7692C27.5197 28.4226 28.1304 27.8119 28.1304 27.0614V26.154C28.1304 25.8056 27.9988 25.4875 27.7828 25.2466C27.9988 25.0057 28.1304 24.6876 28.1304 24.3392V23.4317C28.1304 23.0833 27.9988 22.7652 27.7828 22.5243C27.9988 22.2834 28.1304 21.9653 28.1304 21.6169V20.7094C28.1304 20.361 27.9988 20.0429 27.7828 19.802C27.9988 19.5611 28.1304 19.243 28.1304 18.8946V17.9871C28.1304 17.6387 27.9988 17.3206 27.7828 17.0797C27.9988 16.8388 28.1304 16.5207 28.1304 16.1723V15.2648ZM14.0652 1.19967C14.3714 1.19967 14.6804 1.22099 14.9889 1.26364C14.9762 1.36074 14.9599 1.45057 14.9345 1.52816C14.8941 1.65247 14.8093 1.79585 14.7194 1.94739C14.6069 2.13704 14.4908 2.3453 14.4159 2.57669C14.2993 2.56898 14.1831 2.56081 14.0652 2.56081C12.9586 2.56081 11.8919 2.89293 10.9804 3.52133L11.4953 4.26814C12.3551 3.67605 13.4037 3.40336 14.4263 3.48412C14.5021 3.70236 14.6124 3.90063 14.7199 4.08121C14.8097 4.23275 14.8946 4.37613 14.9349 4.5009C14.9776 4.63112 14.9944 4.79718 15.0116 4.97322C14.7122 4.87975 14.3946 4.82939 14.0652 4.82939C12.3138 4.82939 10.8892 6.25406 10.8892 8.0054C10.8892 8.47953 10.994 8.9396 11.2013 9.37244L12.0198 8.98089C11.8719 8.671 11.7966 8.34296 11.7966 8.0054C11.7966 6.7545 12.8143 5.73682 14.0652 5.73682C15.3161 5.73682 16.3338 6.7545 16.3338 8.0054C16.3338 9.25629 15.3161 10.274 14.0652 10.274C13.7276 10.274 13.3996 10.1987 13.0897 10.0507L12.6981 10.8692C13.131 11.0766 13.591 11.1814 14.0652 11.1814C15.8165 11.1814 17.2412 9.75674 17.2412 8.0054C17.2412 7.80803 17.2208 7.61566 17.1863 7.42827C17.3796 7.63517 17.6051 7.83525 17.9113 7.93507C18.1459 8.01084 18.3782 8.0054 18.601 7.97545C18.601 7.98543 18.6023 7.99542 18.6023 8.0054C18.6023 8.92735 18.3256 9.81618 17.8024 10.5757L18.5492 11.0907C19.1776 10.1787 19.5098 9.11201 19.5098 8.0054C19.5098 7.9505 19.5039 7.89696 19.5025 7.84251C19.6645 7.84206 19.8265 7.86157 20.0116 7.90195C20.2765 7.96003 20.5701 8.02491 20.8709 7.98725C20.8709 7.99315 20.8709 7.9995 20.8709 8.0054C20.8709 10.465 19.5402 12.7349 17.3959 13.9404C17.1663 13.9922 16.9572 14.0992 16.7875 14.2512C16.5465 14.0353 16.2285 13.9037 15.88 13.9037H14.9726C14.3887 13.9037 13.8937 14.2753 13.7008 14.7925C10.1179 14.6015 7.25945 11.6351 7.25945 8.0054C7.25945 4.25272 10.3125 1.19967 14.0652 1.19967ZM7.71316 27.5152C3.96048 27.5152 0.907431 24.4621 0.907431 20.7094C0.907431 16.9567 3.96048 13.9037 7.71316 13.9037C8.27259 13.9037 8.82749 13.9727 9.36423 14.1065C10.5548 15.0257 12.0176 15.602 13.6115 15.6954V16.1723C13.6115 16.5207 13.743 16.8388 13.959 17.0797C13.743 17.3206 13.6115 17.6387 13.6115 17.9871V18.8946C13.6115 19.243 13.743 19.5611 13.959 19.802C13.743 20.0429 13.6115 20.361 13.6115 20.7094V21.6169C13.6115 21.9653 13.743 22.2834 13.959 22.5243C13.743 22.7652 13.6115 23.0833 13.6115 23.4317V24.1014C12.3973 26.2089 10.1487 27.5152 7.71316 27.5152ZM27.2229 16.1723C27.2229 16.4223 27.0192 16.626 26.7692 16.626V17.5334C27.0192 17.5334 27.2229 17.7371 27.2229 17.9871V18.8946C27.2229 19.1446 27.0192 19.3483 26.7692 19.3483V20.2557C27.0192 20.2557 27.2229 20.4594 27.2229 20.7094V21.6169C27.2229 21.8669 27.0192 22.0706 26.7692 22.0706V22.978C27.0192 22.978 27.2229 23.1817 27.2229 23.4317V24.3392C27.2229 24.5891 27.0192 24.7929 26.7692 24.7929V25.7003C27.0192 25.7003 27.2229 25.904 27.2229 26.154V27.0614C27.2229 27.3114 27.0192 27.5152 26.7692 27.5152H25.8618C25.6118 27.5152 25.4081 27.3114 25.4081 27.0614H24.5006C24.5006 27.3114 24.2969 27.5152 24.0469 27.5152H23.1395C22.8895 27.5152 22.6858 27.3114 22.6858 27.0614H21.7783C21.7783 27.3114 21.5746 27.5152 21.3246 27.5152H20.4172C20.1672 27.5152 19.9635 27.3114 19.9635 27.0614H19.056C19.056 27.3114 18.8523 27.5152 18.6023 27.5152H17.6949C17.4449 27.5152 17.2412 27.3114 17.2412 27.0614H16.3338C16.3338 27.3114 16.13 27.5152 15.88 27.5152H14.9726C14.7226 27.5152 14.5189 27.3114 14.5189 27.0614V26.154C14.5189 25.904 14.7226 25.7003 14.9726 25.7003V24.7929C14.7226 24.7929 14.5189 24.5891 14.5189 24.3392V23.4317C14.5189 23.1817 14.7226 22.978 14.9726 22.978V22.0706C14.7226 22.0706 14.5189 21.8669 14.5189 21.6169V20.7094C14.5189 20.4594 14.7226 20.2557 14.9726 20.2557V19.3483C14.7226 19.3483 14.5189 19.1446 14.5189 18.8946V17.9871C14.5189 17.7371 14.7226 17.5334 14.9726 17.5334V16.626C14.7226 16.626 14.5189 16.4223 14.5189 16.1723V15.2648C14.5189 15.0148 14.7226 14.8111 14.9726 14.8111H15.88C16.13 14.8111 16.3338 15.0148 16.3338 15.2648H17.2412C17.2412 15.0148 17.4449 14.8111 17.6949 14.8111H18.6023C18.8523 14.8111 19.056 15.0148 19.056 15.2648H19.9635C19.9635 15.0148 20.1672 14.8111 20.4172 14.8111H21.3246C21.5746 14.8111 21.7783 15.0148 21.7783 15.2648H22.6858C22.6858 15.0148 22.8895 14.8111 23.1395 14.8111H24.0469C24.2969 14.8111 24.5006 15.0148 24.5006 15.2648H25.4081C25.4081 15.0148 25.6118 14.8111 25.8618 14.8111H26.7692C27.0192 14.8111 27.2229 15.0148 27.2229 15.2648V16.1723Z" fill="#440D0F"/>
<path d="M7.71318 18.4409C8.05074 18.4409 8.37878 18.5162 8.68867 18.6641L9.08022 17.8456C8.64738 17.6383 8.18731 17.5334 7.71318 17.5334C5.96184 17.5334 4.53717 18.9581 4.53717 20.7095C4.53717 21.1836 4.64198 21.6437 4.84933 22.0765L5.66783 21.6849C5.51992 21.3751 5.4446 21.047 5.4446 20.7095C5.4446 19.4586 6.46228 18.4409 7.71318 18.4409Z" fill="#440D0F"/>
<path d="M9.75855 19.734C9.90646 20.0439 9.98178 20.3719 9.98178 20.7095C9.98178 21.9603 8.9641 22.978 7.71321 22.978C7.37564 22.978 7.0476 22.9027 6.73772 22.7548L6.34616 23.5733C6.77901 23.7807 7.23907 23.8855 7.71321 23.8855C9.46455 23.8855 10.8892 22.4608 10.8892 20.7095C10.8892 20.2353 10.7844 19.7753 10.5771 19.3424L9.75855 19.734Z" fill="#440D0F"/>
<path d="M7.7132 15.2649C6.60659 15.2649 5.5399 15.597 4.62839 16.2254L5.14335 16.9722C5.90242 16.4491 6.79125 16.1723 7.7132 16.1723C10.215 16.1723 12.2504 18.2077 12.2504 20.7095C12.2504 21.6314 11.9736 22.5203 11.4505 23.2798L12.1973 23.7947C12.8257 22.8828 13.1578 21.8161 13.1578 20.7095C13.1578 17.7072 10.7154 15.2649 7.7132 15.2649Z" fill="#440D0F"/>
<path d="M7.71314 25.2466C5.21135 25.2466 3.17599 23.2112 3.17599 20.7094C3.17599 19.7875 3.45275 18.8986 3.97589 18.1391L3.22907 17.6241C2.60067 18.5361 2.26855 19.6028 2.26855 20.7094C2.26855 23.7116 4.7109 26.154 7.71314 26.154C8.81975 26.154 9.88644 25.8219 10.7979 25.1935L10.283 24.4467C9.52392 24.9698 8.63509 25.2466 7.71314 25.2466Z" fill="#440D0F"/>
<path d="M14.0652 13.45C15.1718 13.45 16.2385 13.1179 17.15 12.4895L16.635 11.7427C15.876 12.2658 14.9871 12.5426 14.0652 12.5426C11.5634 12.5426 9.52804 10.5072 9.52804 8.00543C9.52804 7.08348 9.8048 6.19465 10.3279 5.43513L9.58112 4.92017C8.95273 5.83213 8.62061 6.89882 8.62061 8.00543C8.62061 11.0077 11.063 13.45 14.0652 13.45Z" fill="#440D0F"/>
<path d="M17.2411 16.626H16.3337V17.5334H17.2411V16.626Z" fill="#440D0F"/>
<path d="M19.9634 16.626H19.056V17.5334H19.9634V16.626Z" fill="#440D0F"/>
<path d="M22.6857 16.626H21.7783V17.5334H22.6857V16.626Z" fill="#440D0F"/>
<path d="M25.408 16.626H24.5005V17.5334H25.408V16.626Z" fill="#440D0F"/>
<path d="M17.2411 19.3483H16.3337V20.2557H17.2411V19.3483Z" fill="#440D0F"/>
<path d="M19.9634 19.3483H19.056V20.2557H19.9634V19.3483Z" fill="#440D0F"/>
<path d="M22.6857 19.3483H21.7783V20.2557H22.6857V19.3483Z" fill="#440D0F"/>
<path d="M25.408 19.3483H24.5005V20.2557H25.408V19.3483Z" fill="#440D0F"/>
<path d="M17.2411 22.0707H16.3337V22.9781H17.2411V22.0707Z" fill="#440D0F"/>
<path d="M19.9634 22.0707H19.056V22.9781H19.9634V22.0707Z" fill="#440D0F"/>
<path d="M22.6857 22.0707H21.7783V22.9781H22.6857V22.0707Z" fill="#440D0F"/>
<path d="M25.408 22.0707H24.5005V22.9781H25.408V22.0707Z" fill="#440D0F"/>
<path d="M17.2411 24.7928H16.3337V25.7003H17.2411V24.7928Z" fill="#440D0F"/>
<path d="M19.9634 24.7928H19.056V25.7003H19.9634V24.7928Z" fill="#440D0F"/>
<path d="M22.6857 24.7928H21.7783V25.7003H22.6857V24.7928Z" fill="#440D0F"/>
<path d="M25.408 24.7928H24.5005V25.7003H25.408V24.7928Z" fill="#440D0F"/>
</svg>
