<svg width="24" height="30" viewBox="0 0 24 30" fill="none" xmlns="http://www.w3.org/2000/svg">
<path d="M23.7165 13.1638L20.5258 7.90517C20.4077 7.72791 20.1713 7.60974 19.935 7.60974L19.226 7.72791V1.46488C19.226 1.11036 18.9896 0.874023 18.6351 0.874023H14.1446H9.65417H5.16369C4.80918 0.874023 4.57284 1.11036 4.57284 1.46488V10.2686L3.68656 10.4458C3.5093 10.5049 3.33205 10.564 3.27296 10.7413L0.0823576 16.5907C-0.0358129 16.768 -0.035813 17.0043 0.141443 17.2406C0.200528 17.3588 0.377784 17.477 0.55504 17.477H0.614125L3.15479 17.1225V28.7032C3.15479 29.0577 3.39113 29.294 3.74564 29.294H19.9941C20.3486 29.294 20.5849 29.0577 20.5849 28.7032V14.4636L23.3029 14.05C23.4801 14.05 23.6574 13.8728 23.7755 13.6955C23.8346 13.5183 23.8346 13.341 23.7165 13.1638ZM14.7355 2.11481H18.0443V5.42359H14.7355V2.11481V2.11481ZM14.7355 6.60529H18.0443V8.02334L14.7355 8.61419V6.60529V6.60529ZM10.245 2.11481H13.5538V5.42359H10.245V2.11481V2.11481ZM10.245 6.60529H13.5538V8.79145L10.245 9.3823V6.60529V6.60529ZM5.75454 2.11481H9.06331V5.42359H5.75454V2.11481ZM9.06331 6.60529V9.55955L5.75454 9.91407V6.60529H9.06331ZM19.4032 28.1123H4.39558V16.8861L19.4623 14.6409V28.1123H19.4032ZM1.67766 16.118L4.15924 11.6275L18.6942 9.08687L19.6987 8.90962L22.2393 13.0456L1.67766 16.118Z" fill="#440D0F"/>
</svg>
