<svg width="38" height="17" viewBox="0 0 38 17" fill="none" xmlns="http://www.w3.org/2000/svg">
<path d="M0.431818 16.6921H37.5682C37.8065 16.6921 38 16.4953 38 16.2509C38 16.0082 37.8065 15.8096 37.5682 15.8096H34.795L31.071 1.67002C30.9182 1.09459 30.4052 0.692139 29.8214 0.692139H8.17864C7.59309 0.692139 7.07923 1.09547 6.92809 1.6709L5.91245 5.52771C5.91245 5.52771 5.91159 5.52771 5.91159 5.52859L3.20495 15.8096H0.431818C0.193455 15.8096 0 16.0082 0 16.2509C0 16.4962 0.193455 16.6921 0.431818 16.6921ZM7.7615 1.90213C7.81246 1.70973 7.98432 1.57558 8.17864 1.57558H29.8214C30.0165 1.57558 30.1875 1.70885 30.2376 1.90213L31.4536 6.51971C31.3716 6.56913 31.2835 6.60443 31.185 6.61238C30.8361 6.64238 30.5123 6.37144 30.4812 6.00606C30.4199 5.25588 30.0727 4.57542 29.5096 4.09089C28.9456 3.60636 28.2331 3.37425 27.4973 3.44044C26.2096 3.55341 25.1828 4.54718 25.0031 5.85426C24.8589 6.90186 24.0039 7.69264 22.9701 7.73853C21.7973 7.78531 20.786 6.85067 20.7342 5.64244C20.7014 4.8649 20.374 4.14649 19.8127 3.6196C19.2505 3.09183 18.5138 2.81912 17.7615 2.85618C16.2027 2.92502 14.9789 4.27535 15.0325 5.86926C15.0679 6.93098 14.3899 7.85944 13.3829 8.12509C12.2049 8.43752 11.0027 7.71029 10.7005 6.50823C10.3222 5.01847 8.82895 4.12002 7.37373 4.50393C7.26059 4.53394 7.15091 4.57454 7.04382 4.61867L7.7615 1.90213ZM6.70786 5.90544C6.94882 5.64332 7.24936 5.45092 7.59136 5.3609C8.58541 5.09878 9.60709 5.71128 9.86532 6.73064C10.07 7.54083 10.5709 8.22129 11.2774 8.64581C11.7558 8.93352 12.2887 9.08091 12.8293 9.08091C13.0867 9.08091 13.3458 9.04737 13.6014 8.9803C15.0031 8.6105 15.9479 7.31843 15.8987 5.83925C15.8615 4.72899 16.7148 3.78641 17.8013 3.73875C18.3505 3.71492 18.8411 3.90467 19.2315 4.27182C19.6235 4.63896 19.8507 5.13938 19.8749 5.68216C19.9103 6.50382 20.254 7.26106 20.8482 7.81531C21.4406 8.37133 22.2127 8.65463 23.0107 8.62109C24.4599 8.55843 25.6569 7.44552 25.8616 5.9787C25.986 5.07848 26.6898 4.39714 27.5733 4.31859C28.0846 4.27535 28.5682 4.43421 28.9569 4.76694C29.3455 5.09966 29.5813 5.56566 29.6227 6.08107C29.6944 6.93098 30.438 7.56466 31.2619 7.49141C31.4087 7.47729 31.5486 7.43669 31.6816 7.38374L33.8995 15.8096H4.09882L6.70786 5.90544Z" fill="#440D0F"/>
</svg>
