<svg width="17" height="32" viewBox="0 0 17 32" fill="none" xmlns="http://www.w3.org/2000/svg">
<path d="M14.7883 9.84307C14.9845 9.31974 15.0499 8.73099 14.9191 8.14224C14.6574 6.70307 13.0874 5.19849 11.1249 5.19849H11.0595C8.2466 5.19849 7.72327 0.946403 7.72327 0.880986C7.65785 0.553903 7.39618 0.292236 7.0691 0.292236C6.41494 0.292236 5.76077 1.01182 5.4991 1.27349C4.97577 1.92765 3.79827 3.62849 4.12535 6.4414C2.81702 7.03015 1.9666 8.20765 1.9666 9.51599C1.9666 9.5814 1.9666 9.5814 1.9666 9.64682C0.658269 10.301 -0.0613138 11.5439 0.00410285 12.8522C0.00410285 13.1793 0.134936 13.5064 0.265769 13.8335C0.331186 13.9643 0.396603 14.0297 0.527436 14.0952L6.74202 30.5147C7.00369 31.2997 7.65785 31.6922 8.31202 31.6922C8.96618 31.6922 9.62035 31.2997 9.8166 30.6456L12.8258 22.7302C12.8912 22.5993 12.9566 22.5339 12.9566 22.4031L16.0312 14.226C16.162 14.1606 16.2274 14.0297 16.2928 13.9643C16.4237 13.7027 16.4891 13.3756 16.5545 12.9831C16.6199 11.6747 15.9658 10.5627 14.7883 9.84307ZM11.7791 21.8143L5.76077 24.1039L4.58327 20.9639L13.4145 17.5622L11.7791 21.8143ZM2.7516 10.8243C2.7516 10.8243 2.81702 10.8243 2.7516 10.8243C3.07869 10.8897 3.34035 10.9552 3.5366 10.9552C4.7141 10.9552 5.4991 10.301 5.56452 10.301C5.82618 10.1047 5.8916 9.64682 5.69535 9.38515C5.4991 9.12349 5.04119 9.05807 4.77952 9.25432C4.77952 9.25432 4.19077 9.71224 3.34035 9.64682C3.34035 9.64682 3.34035 9.64682 3.34035 9.5814C3.34035 8.7964 3.9291 8.0114 4.77952 7.68432C4.77952 7.68432 4.84494 7.68432 4.84494 7.74974C5.1066 7.81515 5.36827 7.81515 5.62993 7.81515C6.80743 7.81515 7.59243 7.16099 7.65785 7.16099C7.91952 6.96474 7.98494 6.50682 7.78869 6.24515C7.59244 5.98349 7.13452 5.91807 6.87285 6.11432C6.87285 6.11432 6.2841 6.50682 5.56452 6.50682C5.23743 4.28265 6.08785 2.77807 6.6766 2.05849C7.0691 3.62849 8.18118 6.57224 11.1249 6.57224H11.1904C12.4987 6.57224 13.5454 7.68432 13.6762 8.46932C13.7416 8.92724 13.6762 9.31974 13.4799 9.71224C13.4799 9.71224 13.4145 9.71224 13.4145 9.77765C13.4145 9.77765 12.6949 10.301 11.7137 10.1047C11.3866 10.0393 10.9941 10.2356 10.9287 10.5627C10.8633 10.8897 11.0595 11.2822 11.3866 11.3477C11.6483 11.4131 11.9099 11.4131 12.1716 11.4131C12.9566 11.4131 13.6108 11.1514 13.9378 10.9552C14.7883 11.4131 15.3116 12.1327 15.2462 12.9831C15.2462 13.0485 15.2462 13.0485 15.2462 13.1139H1.44327C1.44327 13.0485 1.44327 12.9831 1.44327 12.9831C1.37785 12.0018 1.90119 11.2168 2.7516 10.8243ZM14.592 14.2914L13.9378 15.9268L4.05994 19.721L1.9666 14.226H14.592V14.2914ZM8.6391 30.1877C8.57368 30.4493 8.11577 30.4493 8.05035 30.1877L6.21868 25.4122L11.1249 23.5152L8.6391 30.1877Z" fill="#440D0F"/>
</svg>
