<svg width="31" height="32" viewBox="0 0 31 32" fill="none" xmlns="http://www.w3.org/2000/svg">
<path d="M30.4781 21.7645C30.4781 21.701 30.4781 21.701 30.4781 21.6375C30.4781 21.5105 30.4146 21.447 30.4146 21.32C30.2876 20.939 30.0971 20.5581 29.7162 20.3041C29.2717 19.9231 28.7002 19.6056 28.0018 19.4151C28.0653 18.9072 28.0018 18.3992 27.6843 17.9547C26.8588 16.7483 24.7635 16.0498 21.7792 16.0498C21.3347 16.0498 20.9537 16.0498 20.5092 16.1133C19.4298 13.129 17.2074 10.7797 14.3501 9.63674C14.0326 9.50975 13.6517 9.63674 13.5247 10.0177C13.3977 10.3352 13.5247 10.7162 13.9056 10.8432C14.8581 11.2241 15.8105 11.7956 16.5725 12.4941C16.128 12.3671 15.747 12.2401 15.3026 12.1766C13.9691 12.0496 12.6992 12.4306 11.5563 13.256C11.8103 11.7956 12.5087 9.57325 14.2866 8.11284C14.5406 7.92235 14.6041 7.47788 14.4136 7.22389C14.2231 6.96991 13.7786 6.90641 13.5247 7.0969C12.8897 7.60487 12.3817 8.17634 12.0008 8.8113C10.9848 4.23958 6.98457 0.810791 2.22236 0.810791C1.84139 0.810791 1.5874 1.06478 1.5874 1.44575C1.5874 5.00153 3.49228 8.04934 6.28611 9.82723C2.53984 11.6051 0 15.6054 0 20.0501C0 26.2727 4.76221 31.2889 10.6038 31.2889C12.3817 31.2889 14.0961 30.8444 15.62 29.9555C17.0804 30.7809 18.7948 31.2889 20.6362 31.2889C25.8429 31.2889 30.0971 27.2887 30.4781 22.2725C30.4781 22.082 30.4781 21.8915 30.4781 21.7645ZM26.6049 18.5897C26.7318 18.7802 26.8588 19.0342 26.6049 19.4786C26.4779 19.6691 26.4779 19.8596 26.6049 20.0501C26.6684 20.2406 26.8588 20.3676 27.0493 20.4311C27.8748 20.6216 28.5097 20.8755 28.8907 21.193C29.1447 21.3835 29.2082 21.6375 29.2082 21.7645C29.2082 21.8915 29.2082 21.955 29.2082 22.082C29.0177 22.9709 27.6208 24.3043 24.8905 25.2568C23.1126 25.8917 21.1442 26.2092 19.4298 26.2092C17.6519 26.2092 16.3185 25.8917 15.62 25.2568C15.4295 25.0663 14.9216 24.6218 15.6835 23.6059C15.8105 23.4154 15.874 23.1614 15.747 22.9709C15.62 22.7804 15.493 22.5899 15.2391 22.5899C13.7152 22.3995 12.5722 21.955 12.1912 21.3835C12.0643 21.1295 12.0008 20.939 12.1277 20.6851C12.5087 19.7961 14.3501 18.4627 17.6519 17.7007C18.9853 17.3833 20.4457 17.2563 21.7792 17.2563C24.1285 17.2563 26.0334 17.7642 26.6049 18.5897ZM2.92082 2.08071C7.11156 2.39819 10.4769 5.76348 10.7943 9.95423C6.60359 9.63674 3.2383 6.27145 2.92082 2.08071ZM10.6038 30.019C5.46066 30.019 1.26992 25.5743 1.26992 20.0501C1.26992 15.7324 3.93676 11.8591 7.74652 10.5892C8.63547 10.9702 9.6514 11.1607 10.6673 11.2876C10.4134 12.1131 10.2229 12.8115 10.1594 13.383C9.46091 12.8115 8.63547 12.4306 7.87351 12.2401C7.55603 12.1766 7.17506 12.3671 7.11156 12.6846C7.04806 13.002 7.23855 13.383 7.55603 13.4465C8.50847 13.7005 9.39742 14.272 10.2229 15.0974C10.4769 15.3514 10.9213 15.3514 11.1753 15.0974C12.3817 13.8275 13.7786 13.1925 15.1756 13.3195C16.763 13.4465 18.1599 14.5259 19.0488 16.1133C18.4774 16.1768 17.9694 16.3038 17.3979 16.4308C14.0961 17.1928 11.6198 18.5897 10.9848 20.1771C10.8578 20.5581 10.7943 20.939 10.8578 21.32C10.7943 21.447 10.7943 21.5105 10.7943 21.574C10.7943 24.6218 12.2547 27.3521 14.4771 29.13C13.2072 29.7015 11.9373 30.019 10.6038 30.019ZM20.6362 30.019C16.382 30.019 12.8897 26.9712 12.1912 23.0344C12.7627 23.3519 13.4612 23.6059 14.1596 23.7329C13.7786 24.6853 13.9691 25.5743 14.7311 26.2727C15.62 27.0982 17.2709 27.5426 19.3663 27.5426C21.2712 27.5426 23.3666 27.1617 25.2714 26.4632C26.6049 26.0187 27.6843 25.4473 28.5097 24.8123C27.2398 27.8601 24.192 30.019 20.6362 30.019Z" fill="#440D0F"/>
<path d="M16.7628 22.3361C16.6993 22.5266 16.6993 22.717 16.7628 22.844C16.8263 23.0345 17.0168 23.1615 17.2073 23.1615C18.0328 23.352 18.8582 23.479 19.6837 23.479C22.414 23.479 24.6363 22.3996 25.3983 20.6852C25.4618 20.4947 25.4618 20.3042 25.3983 20.1772C25.3348 19.9867 25.1443 19.8597 24.9538 19.8597C24.1284 19.6692 23.3029 19.5422 22.4775 19.5422C19.7471 19.5422 17.4613 20.6217 16.7628 22.3361ZM22.4775 20.8122C22.922 20.8122 23.3029 20.8122 23.7474 20.8757C22.922 21.7011 21.398 22.2091 19.6837 22.2091C19.2392 22.2091 18.8582 22.2091 18.4137 22.1456C19.1757 21.3201 20.6996 20.8122 22.4775 20.8122Z" fill="#440D0F"/>
</svg>
