<svg width="31" height="31" viewBox="0 0 31 31" fill="none" xmlns="http://www.w3.org/2000/svg">
<path d="M23.6841 13.1587C23.1126 13.1587 22.5412 13.2857 22.0332 13.4127C22.2237 12.5872 22.7317 11.4443 24.0016 10.8094C24.3191 10.6189 24.4461 10.2379 24.2556 9.9204C24.0651 9.60292 23.6841 9.47593 23.3666 9.66642C22.5412 10.1109 21.9697 10.6824 21.5887 11.2538C20.6998 10.9998 19.7473 10.8728 18.7949 10.8728C18.4774 10.8728 18.1599 10.8728 17.8424 10.9363L18.4139 6.93608C18.4139 6.74559 18.4139 6.5551 18.2869 6.42811C18.1599 6.30112 17.9694 6.23762 17.7789 6.23762H10.1594L11.2388 3.82477L14.9216 1.4754C15.2391 1.28492 15.3026 0.903938 15.1121 0.586457C14.9851 0.268976 14.6041 0.20548 14.2867 0.395968L10.4769 2.80883C10.3499 2.87232 10.2864 2.99931 10.2229 3.06281L8.82598 6.17413H0.634962C0.444474 6.17413 0.253985 6.23762 0.126993 6.36462C0.0634963 6.5551 0 6.74559 0 6.87258L3.3018 30.1757C3.3653 30.4932 3.61929 30.7472 3.93677 30.7472H14.5406C14.8581 30.7472 15.1121 30.4932 15.1756 30.1757L15.4296 28.3978C16.5725 29.6677 18.0329 30.3662 19.6203 30.3662C20.1918 30.3662 20.6998 30.3027 21.2077 30.1122C21.9697 30.4932 22.7952 30.7472 23.6841 30.7472C27.4304 30.7472 30.4782 26.8104 30.4782 21.9212C30.4782 17.0955 27.4304 13.1587 23.6841 13.1587ZM21.0173 12.3968C20.7633 12.9682 20.5093 13.4762 20.1918 13.9842C19.8743 14.4286 19.4933 14.8731 19.1124 15.3176C19.1124 15.3176 19.1124 15.3176 19.0489 15.3811C15.7471 18.4924 12.1278 17.9209 11.7468 17.8574C11.3658 17.7939 11.0483 17.7304 10.6674 17.6669C10.7944 17.3495 10.9849 17.032 11.1118 16.7145C11.1118 16.5875 14.2867 10.8728 21.0173 12.3968ZM1.39692 7.44405H17.144L16.89 9.09495H1.58741L1.39692 7.44405ZM13.9692 29.4772H4.44474L1.77789 10.3649H16.6995L16.5725 11.1268H16.509C16.382 11.1268 12.8262 11.8253 10.4769 15.3176C10.4134 15.3811 9.27045 17.7304 9.20696 17.7939C9.07996 18.1114 9.27045 18.4924 9.58793 18.6194C10.3499 18.8734 11.1753 19.0639 12.0008 19.1274C12.2548 19.1274 12.5723 19.1909 12.8262 19.1909C13.0167 19.1909 13.2707 19.1909 13.4612 19.1909C12.6993 21.4132 13.0802 24.0166 14.2232 26.8104C14.2232 26.8104 14.2867 26.9374 14.3502 27.0644L13.9692 29.4772ZM19.6203 29.1598C17.9694 29.1598 16.509 28.1438 15.5566 26.5564V26.4929C13.4612 23.0641 14.8581 19.0004 14.8581 18.9369C15.1121 18.8734 15.3026 18.8099 15.5566 18.7464C16.255 18.5559 16.9535 18.2384 17.652 17.9209C17.5885 18.0479 17.652 18.2384 17.525 18.3019C15.4931 25.4135 19.3029 28.7788 19.3029 28.7788C19.3664 28.7788 19.3664 28.8423 19.4299 28.9058C19.5568 29.0328 19.6203 29.1598 19.7473 29.2233C19.7473 29.1598 19.6838 29.1598 19.6203 29.1598ZM23.6841 29.4772C21.9697 29.5407 20.5728 28.2073 20.5728 28.1438C17.8424 26.3659 17.0805 17.7304 21.1443 15.2541C21.2077 15.1906 21.3347 15.1271 21.3982 15.0636C21.4617 15.0001 21.5252 15.0001 21.5887 14.9366C22.2237 14.5556 22.9221 14.3651 23.6841 14.3651C26.7319 14.3651 29.2083 17.7304 29.2083 21.9212C29.2083 26.1119 26.7319 29.4772 23.6841 29.4772Z" fill="#440D0F"/>
</svg>
