<svg width="32" height="33" viewBox="0 0 32 33" fill="none" xmlns="http://www.w3.org/2000/svg">
<path d="M31.1795 29.2567L19.2419 9.18574C18.6516 8.20187 17.5365 7.54596 16.3559 7.54596C15.7 7.54596 15.1096 7.74274 14.5193 8.07069C14.3225 8.20187 14.1258 8.33306 13.9946 8.46424C13.2075 7.02123 9.99352 2.0363 4.09031 0.527701C3.82795 0.46211 3.49999 0.593292 3.36881 0.855657C3.23763 1.11802 3.23763 1.38039 3.36881 1.57716C3.49999 1.70834 5.13977 3.80726 6.71396 5.51263C6.4516 5.51263 6.25482 5.44704 5.99246 5.44704C4.09031 5.44704 2.18817 6.10296 0.286022 7.41478C0.0236574 7.61155 -0.0419338 7.87392 0.0236574 8.20187C0.15484 8.46424 0.417205 8.66101 0.67957 8.66101C0.67957 8.66101 1.59785 8.59542 2.84408 8.59542C3.49999 8.59542 4.28709 8.59542 5.13977 8.66101C4.48386 9.12015 3.82795 9.77606 3.17204 10.7599C3.04085 10.9567 3.04085 11.2847 3.17204 11.4814C3.30322 11.6782 3.56558 11.8094 3.82795 11.7438C3.82795 11.7438 4.81182 11.6126 6.12364 11.6126C7.23869 11.6126 8.6817 11.7438 9.86234 12.2029C9.59998 12.4653 9.4032 12.7277 9.14084 12.99C8.55052 13.7115 8.28815 14.6298 8.41933 15.5481C8.55052 16.4664 9.00966 17.2535 9.73116 17.7782L28.5558 31.6179C28.8838 31.8803 29.2773 32.0115 29.6709 32.0115C30.3268 32.0115 30.9171 31.6179 31.2451 31.0932C31.5074 30.5029 31.5074 29.7814 31.1795 29.2567ZM6.05805 10.3008C5.73009 10.3008 5.40214 10.3008 5.13977 10.3008C6.18923 9.25133 7.23869 9.12015 7.69783 9.12015C7.82901 9.12015 7.8946 9.12015 7.8946 9.12015C8.22256 9.18574 8.55052 8.98897 8.61611 8.59542C8.6817 8.26747 8.48493 7.93951 8.15697 7.80833C6.58278 7.41478 4.81182 7.2836 3.36881 7.21801C4.2215 6.89005 5.07418 6.75887 5.86128 6.75887C7.63224 6.75887 8.6817 7.48037 8.6817 7.48037C8.94406 7.67715 9.4032 7.61155 9.59998 7.34919C9.79675 7.08682 9.73116 6.62769 9.46879 6.43091C8.55052 5.775 6.97633 3.93844 5.79568 2.56103C10.1903 4.59436 12.486 8.66101 12.8795 9.31693C12.9451 10.1696 12.4204 10.6943 12.4204 10.6943C12.0269 11.0879 11.4365 11.2847 11.1086 11.4158C10.0591 10.6943 8.35374 10.3008 6.05805 10.3008ZM30.0644 30.4373C29.9333 30.6997 29.5397 30.8308 29.2773 30.6341L21.5376 24.9276L22.7182 23.8782C22.9806 23.6158 22.9806 23.2223 22.7838 22.9599C22.5214 22.6975 22.1279 22.6975 21.8655 22.8943L20.4881 24.1405L16.3559 21.0578L17.4709 20.0739C17.7333 19.8115 17.7333 19.418 17.5365 19.1556C17.2741 18.8932 16.8806 18.8932 16.6182 19.09L15.3064 20.2707L10.4527 16.7287C9.99352 16.4008 9.73116 15.9416 9.66557 15.3513C9.59998 14.761 9.73116 14.2363 10.1247 13.7771C10.3871 13.4492 10.715 13.1212 11.043 12.7277C11.1086 12.7277 11.1086 12.7277 11.1742 12.7277C11.3053 12.7277 13.9946 12.3341 14.257 9.84166C14.5849 9.57929 14.9129 9.31693 15.2408 9.12015C15.5688 8.92338 15.9623 8.7922 16.3559 8.7922C17.0774 8.7922 17.7333 9.18574 18.0612 9.77606L19.2419 11.8094L17.9957 12.9244C17.7333 13.1868 17.7333 13.5804 17.9301 13.8427C18.0612 13.9739 18.258 14.0395 18.3892 14.0395C18.5204 14.0395 18.7172 13.9739 18.8483 13.8427L19.8978 12.8589L22.7838 17.7126L21.6032 18.8277C21.3408 19.09 21.3408 19.4836 21.5376 19.7459C21.6688 19.8771 21.8655 19.9427 21.9967 19.9427C22.1279 19.9427 22.3247 19.8771 22.4559 19.7459L23.4397 18.8277L29.9333 29.7158C30.13 30.1093 30.13 30.2405 30.0644 30.4373Z" fill="#440D0F"/>
</svg>
