<svg width="32" height="32" viewBox="0 0 32 32" fill="none" xmlns="http://www.w3.org/2000/svg">
<path d="M32 15.9341C32 15.6341 31.7935 15.4341 31.4839 15.4341H30.4516C30.4516 15.2841 30.4516 15.1841 30.4516 15.0341C30.4516 10.6341 26.7355 7.03408 22.1935 7.03408C21.3161 7.03408 20.4903 7.18408 19.6645 7.43408C19.3548 5.73408 18.4774 4.18408 17.2387 2.93408C15.5871 1.33408 13.3677 0.434082 11.0452 0.434082C10.7355 0.434082 10.529 0.634082 10.529 0.934082V7.38408C10.0645 6.88408 9.49677 6.58408 8.87742 6.58408C7.17419 6.48408 5.78065 8.43408 5.31613 9.13408C3.6129 9.43408 2.37419 10.1841 1.65161 11.3841C0.825806 12.8341 1.03226 14.5341 1.23871 15.4341H0.516129C0.206452 15.4341 0 15.6341 0 15.9341C0 20.4341 1.96129 24.5841 5.36774 27.5341C5.26452 27.6341 5.16129 27.7841 5.16129 27.9341V30.9341C5.16129 31.2341 5.36774 31.4341 5.67742 31.4341H26.3226C26.6323 31.4341 26.8387 31.2341 26.8387 30.9341V27.9341C26.8387 27.7841 26.7355 27.6341 26.6323 27.5341C26.8903 27.3341 27.0968 27.1341 27.3548 26.8841C30.3484 23.9841 32 20.0841 32 15.9341ZM29.4194 15.0341C29.4194 15.1841 29.4194 15.2841 29.4194 15.4341H28.3871C28.3871 15.2841 28.3871 15.1841 28.3871 15.0341C28.3871 11.7341 25.6 9.03408 22.1935 9.03408C21.0581 9.03408 19.9742 9.33408 19.0452 9.88408C17.1871 10.9341 16 12.9341 16 15.0341C16 15.1841 16 15.2841 16 15.4341H14.9677C14.9677 15.2841 14.9677 15.1841 14.9677 15.0341C14.9677 14.8341 14.9677 14.6841 14.9677 14.4841C15.0194 13.9841 15.1226 13.5341 15.2258 13.0341C15.2258 12.9841 15.2774 12.8841 15.2774 12.8341C15.8452 11.0841 17.1355 9.58408 18.8903 8.73408C19.0452 8.63408 19.2 8.58408 19.4065 8.53408C20.2839 8.18408 21.2129 7.98408 22.1419 7.98408C26.1677 8.03408 29.4194 11.1841 29.4194 15.0341ZM21.2645 15.4341C21.2645 15.3841 21.2129 15.3341 21.2129 15.2841V15.2341C21.2129 15.1841 21.2129 15.0841 21.2129 15.0341C21.2129 14.4841 21.6774 14.0341 22.2452 14.0341C22.8129 14.0341 23.2774 14.4841 23.2774 15.0341C23.2774 15.0841 23.2774 15.1841 23.2774 15.2341V15.2841C23.2774 15.3341 23.2774 15.3841 23.2258 15.3841H21.2645V15.4341ZM24.2065 15.3841C24.2065 15.2841 24.2581 15.1341 24.2581 15.0341C24.2581 13.9341 23.329 13.0341 22.1935 13.0341C21.0581 13.0341 20.129 13.9341 20.129 15.0341C20.129 15.1341 20.129 15.2841 20.1806 15.3841C20.1806 15.3841 20.1806 15.3841 20.1806 15.4341H19.1484C19.1484 15.2841 19.0968 15.1841 19.0968 15.0341C19.0968 14.3841 19.3032 13.7841 19.7161 13.2341C20.2839 12.4841 21.2129 12.0341 22.1935 12.0341C23.8968 12.0341 25.2903 13.3841 25.2903 15.0341C25.2903 15.1841 25.2903 15.2841 25.2387 15.4341L24.2065 15.3841C24.2065 15.4341 24.2065 15.4341 24.2065 15.3841ZM26.3226 15.0341C26.3226 12.8341 24.4645 11.0341 22.1935 11.0341C20.9032 11.0341 19.6645 11.6341 18.8903 12.6341C18.3742 13.3341 18.0645 14.1341 18.0645 15.0341C18.0645 15.1841 18.0645 15.2841 18.0645 15.4341H17.0323C17.0323 15.2841 17.0323 15.1841 17.0323 15.0341C17.0323 13.2841 18.0129 11.6341 19.5613 10.7341C20.3355 10.2841 21.2645 10.0341 22.1935 10.0341C25.0323 10.0341 27.3548 12.2841 27.3548 15.0341C27.3548 15.1841 27.3548 15.2841 27.3548 15.4341H26.3226C26.3226 15.2841 26.3226 15.1841 26.3226 15.0341ZM11.5613 1.43408C13.4194 1.53408 15.1742 2.33408 16.5161 3.63408C17.7032 4.78408 18.4258 6.23408 18.6839 7.78408C18.6323 7.78408 18.6323 7.83408 18.5806 7.83408C18.4774 7.88408 18.4258 7.93408 18.3226 7.98408C18.2194 8.03408 18.1161 8.08408 18.0645 8.13408C17.9613 8.18408 17.9097 8.23408 17.8065 8.28408C17.7032 8.33408 17.6516 8.38408 17.5484 8.43408C17.4452 8.48408 17.3935 8.53408 17.2903 8.58408C17.1871 8.63408 17.1355 8.68408 17.0323 8.78408C16.9806 8.83408 16.8774 8.88408 16.8258 8.98408C16.7226 9.03408 16.671 9.13408 16.6194 9.18408C16.5677 9.23408 16.4645 9.33408 16.4129 9.38408C16.3613 9.43408 16.2581 9.53408 16.2065 9.58408C16.1548 9.63408 16.0516 9.73408 16 9.78408C15.9484 9.83408 15.8452 9.93408 15.7935 10.0341C15.7419 10.0841 15.6903 10.1841 15.6387 10.2341C15.5871 10.3341 15.5355 10.3841 15.4839 10.4841C15.4323 10.5341 15.3806 10.6341 15.329 10.6841C15.2774 10.7841 15.2258 10.8341 15.1742 10.9341C15.1226 11.0341 15.071 11.0841 15.0194 11.1841C14.9677 11.2841 14.9161 11.3841 14.8645 11.4341C14.8129 11.5341 14.7613 11.5841 14.7613 11.6841C14.7097 11.7841 14.6581 11.8841 14.6581 11.9841C14.6065 12.0841 14.6065 12.1341 14.5548 12.2341C14.5032 12.3341 14.5032 12.4341 14.4516 12.5341C14.4 12.6341 14.4 12.6841 14.3484 12.7841C14.2968 12.8841 14.2968 12.9841 14.2452 13.0841C14.2452 13.1841 14.1935 13.2341 14.1935 13.3341C14.1935 13.4341 14.1419 13.5841 14.1419 13.6841C14.1419 13.7841 14.0903 13.8341 14.0903 13.9341C14.0903 14.0841 14.0387 14.1841 14.0387 14.3341C14.0387 14.3841 14.0387 14.4841 14.0387 14.5341C14.0387 14.7341 14.0387 14.9341 14.0387 15.1341C14.0387 15.2841 14.0387 15.3841 14.0387 15.5341H11.6645V1.43408H11.5613ZM2.58065 11.8841C3.14839 10.9341 4.23226 10.2841 5.78064 10.0341C5.93548 9.98408 6.03871 9.93408 6.14194 9.78408C6.50323 9.18408 7.69032 7.53408 8.82581 7.53408H8.87742C9.6 7.58408 10.2194 8.43408 10.5806 9.18408V15.4341H9.08387V9.53408C9.08387 9.23408 8.87742 9.03408 8.56774 9.03408C8.25806 9.03408 8.05161 9.23408 8.05161 9.53408V14.8341L5.52258 12.6841C5.31613 12.4841 5.00645 12.5341 4.8 12.7341C4.59355 12.9341 4.64516 13.2341 4.85161 13.4341L7.17419 15.3841H2.32258C2.11613 14.7841 1.80645 13.1841 2.58065 11.8841ZM1.03226 16.4341H1.90968H10.9935H14.4516H16.5161H18.6323H20.9032H23.3806H25.6516H27.7677H29.8323H30.9677C30.8645 20.1341 29.3161 23.5841 26.5806 26.1841C26.1161 26.6341 25.6516 27.0341 25.1355 27.4341H6.86452C3.30323 24.7841 1.1871 20.7841 1.03226 16.4341ZM25.8065 30.4341H6.19355V28.4341H6.70968H25.2903H25.8065V30.4341Z" fill="#440D0F"/>
</svg>
