<svg width="32" height="33" viewBox="0 0 32 33" fill="none" xmlns="http://www.w3.org/2000/svg">
<path d="M32 13.1835V10.1835C32 9.464 31.578 8.8035 30.8425 8.372L18.2721 1.012C17.6861 0.670502 16.9515 0.489502 16.148 0.489502C15.0935 0.489502 14.0489 0.806002 13.2819 1.359L5.31417 7.1245C4.82415 6.905 4.24963 6.7905 3.63361 6.7905C2.67408 6.7905 1.72805 7.076 1.03803 7.573C0.369011 8.055 0 8.686 0 9.349V12.349C0 13.023 0.396012 13.6425 1.08753 14.05L2.55958 14.912C1.99506 15.039 1.46855 15.264 1.03803 15.573C0.369011 16.055 0 16.686 0 17.3485V20.349C0 21.023 0.396012 21.6425 1.08753 22.05L18.0841 32.0005C18.6506 32.3295 19.3526 32.4895 20.0701 32.4895C20.9972 32.4895 21.9487 32.2215 22.6642 31.7025C23.2892 31.2485 23.6502 30.6645 23.6912 30.0465C23.7007 30.0085 23.7052 29.969 23.7052 29.928V28.2985L30.8635 23.1185C31.596 22.5865 31.9995 21.8995 31.9995 21.184V18.1835C31.9995 17.464 31.5775 16.804 30.842 16.372L29.8959 15.818L30.8635 15.118C31.596 14.586 32 13.899 32 13.1835ZM1.62255 8.3845C2.14607 8.007 2.87959 7.7905 3.63361 7.7905C4.19513 7.7905 4.71865 7.915 5.10916 8.1415C5.28016 8.241 5.49367 8.23 5.65318 8.114L13.8669 2.1695C14.467 1.7375 15.2985 1.4895 16.148 1.4895C16.7655 1.4895 17.3415 1.6265 17.7676 1.8755L30.3369 9.235C30.7645 9.486 31 9.823 31 10.184C31 10.5705 30.7425 10.9705 30.2769 11.309L22.0622 17.253C21.9257 17.352 21.8477 17.5135 21.8557 17.6815C21.8637 17.8495 21.9557 18.0035 22.1012 18.0885C22.4842 18.314 22.6952 18.6125 22.6952 18.928C22.6952 19.2555 22.4697 19.6075 22.0772 19.8935C21.5557 20.2715 20.8237 20.488 20.0681 20.488C19.5046 20.488 18.9781 20.363 18.5876 20.1365L1.59355 10.1875C1.21054 9.962 0.999531 9.664 0.999531 9.3485C1.00003 9.021 1.22704 8.6695 1.62255 8.3845ZM1.59355 13.1875C1.21054 12.962 0.999531 12.664 0.999531 12.349V10.9925C1.02903 11.0115 1.05603 11.0325 1.08703 11.0505L18.0836 21.0015C18.6336 21.3205 19.3196 21.489 20.0676 21.489C21.0292 21.489 21.9747 21.203 22.6637 20.7035C22.6782 20.693 22.6907 20.6815 22.7047 20.671V21.828C22.6977 21.8605 22.6942 21.8945 22.6942 21.929C22.6942 22.2565 22.4687 22.6085 22.0762 22.8945C21.1347 23.5775 19.5361 23.688 18.5866 23.1375L1.59355 13.1875ZM15.073 22.2385H6.72971V17.3535L15.073 22.2385ZM4.11263 16.9505C3.84312 16.7455 3.71312 16.283 3.72712 15.5955L5.72968 16.768V21.021C5.55917 21.028 5.35967 21.0225 5.13266 20.989C4.37864 20.878 4.15663 20.676 4.09163 20.565C3.94962 20.3235 4.14413 19.811 4.31563 19.359C4.59664 18.619 4.98166 17.6055 4.11263 16.9505ZM1.62155 16.385C1.93356 16.1615 2.31907 15.9975 2.73609 15.8985C2.77209 16.7665 3.02509 17.3795 3.50911 17.7475C3.73962 17.921 3.67611 18.2275 3.38111 19.004C3.3576 19.066 3.3341 19.129 3.3106 19.1925L1.59405 18.1875C1.21104 17.962 1.00003 17.6635 1.00003 17.348C1.00003 17.021 1.22704 16.669 1.62155 16.385ZM22.7052 29.827C22.6982 29.8595 22.6947 29.8935 22.6947 29.928C22.6947 30.2555 22.4692 30.6075 22.0767 30.8935C21.1352 31.576 19.5366 31.687 18.5871 31.1365L1.59405 21.1875C1.21104 20.962 1.00003 20.6635 1.00003 20.3485V18.9915C1.02953 19.0105 1.05653 19.0315 1.08753 19.0495L3.0521 20.2C3.02809 20.4985 3.0666 20.7935 3.2296 21.071C3.51011 21.5485 4.08463 21.8455 4.98616 21.9775C5.19416 22.0085 5.39617 22.024 5.59817 22.024C5.64168 22.024 5.68618 22.0195 5.72968 22.018V22.7375C5.72968 23.014 5.95369 23.2375 6.22969 23.2375H8.03725C8.64227 24.5995 10.1398 26.194 11.8409 26.735C12.6644 26.9965 13.4609 26.9855 14.1894 26.718L18.0841 28.9995C18.6511 29.328 19.3531 29.489 20.0706 29.489C20.9972 29.489 21.9482 29.221 22.6632 28.7025C22.6782 28.6915 22.6907 28.6785 22.7057 28.6675V29.827H22.7052ZM15.214 26.1595C16.6325 25.2865 18.5216 25.8235 18.8031 26.0035C19.4136 26.492 20.7676 27.4515 22.2592 27.7435C22.2032 27.7955 22.1432 27.845 22.0772 27.893C21.1357 28.5755 19.5366 28.6875 18.5881 28.136L15.214 26.1595ZM25.2738 25.5855C24.8018 26.294 24.2273 26.692 23.5192 26.802C21.8702 27.057 19.9711 25.6575 19.4261 25.2215C18.9741 24.862 16.364 24.0855 14.457 25.4575C13.7789 25.947 13.0009 26.0565 12.1434 25.783C10.8953 25.386 9.7573 24.2705 9.16379 23.2385H16.781L18.0836 24.001C18.6506 24.33 19.3526 24.4895 20.0701 24.4895C20.9972 24.4895 21.9487 24.222 22.6642 23.703C22.8607 23.5605 23.0277 23.4035 23.1697 23.2385H26.0048C25.9568 23.9595 25.7963 24.7965 25.2738 25.5855ZM23.6657 22.2385C23.6767 22.175 23.6867 22.1115 23.6912 22.047C23.7007 22.009 23.7052 21.9695 23.7052 21.9285V20.299L27.5799 17.495V22.2385H23.6657ZM30.3369 17.2345C30.7645 17.4855 31 17.8225 31 18.183C31 18.4365 30.8795 18.694 30.673 18.9375C30.6385 18.385 30.5055 17.7885 30.2559 17.187L30.3369 17.2345ZM30.1374 21.07C30.2919 20.8785 30.4149 20.643 30.5055 20.376L30.8635 20.118C30.912 20.083 30.9545 20.0455 30.9995 20.0095V21.1835C30.9995 21.57 30.742 21.9695 30.2764 22.308L26.7063 24.891C26.8983 24.309 26.9773 23.746 27.0063 23.238H28.0794C28.3559 23.238 28.5794 23.0145 28.5794 22.738V21.768L28.6974 21.6825C28.7504 21.687 28.8039 21.693 28.8559 21.693C29.3574 21.693 29.8054 21.482 30.1374 21.07ZM28.5799 20.65V16.771L28.8084 16.6055C29.8844 18.1865 29.8454 19.8385 29.3589 20.4425C29.2829 20.537 29.0724 20.7935 28.5799 20.65ZM30.2769 14.3085L23.7052 19.0645V18.9285H23.6952C23.6952 18.4705 23.5127 18.038 23.1792 17.6795L30.864 12.1185C30.9125 12.0835 30.955 12.046 31 12.01V13.184C31 13.5705 30.7425 13.97 30.2769 14.3085Z" fill="#440D0F"/>
</svg>
