<svg width="31" height="33" viewBox="0 0 31 33" fill="none" xmlns="http://www.w3.org/2000/svg">
<path d="M10.276 5.35123H10.4761C10.8765 5.35123 11.1434 5.08432 11.1434 4.68396V1.41434C11.1434 1.01398 10.8765 0.74707 10.4761 0.74707H2.66908C2.26872 0.74707 2.00181 1.01398 2.00181 1.41434V4.68396C2.00181 5.08432 2.26872 5.35123 2.66908 5.35123H2.86926C2.86926 6.95268 2.40217 8.55413 1.53472 9.95539C0.533816 11.6236 0 13.4919 0 15.3603V30.1737C0 31.5749 1.13436 32.776 2.60235 32.776H10.5429C11.9441 32.776 13.1452 31.6417 13.1452 30.1737V15.3603C13.1452 13.4252 12.6114 11.5568 11.6105 9.95539C10.743 8.55413 10.276 7.01941 10.276 5.35123ZM3.33635 2.08161H9.80887V4.01669H9.60869H3.60326H3.33635V2.08161ZM11.8107 23.0339C11.477 23.3675 10.8098 23.3675 10.4761 23.0339C9.60869 22.1664 8.14069 22.1664 7.27324 23.0339C6.93961 23.3675 6.27234 23.3675 5.9387 23.0339C5.07125 22.1664 3.60326 22.1664 2.73581 23.0339C2.40217 23.3675 1.80163 23.3675 1.40127 23.0339V17.0285C2.20199 17.2954 3.06944 17.0952 3.66998 16.4946C4.00362 16.161 4.67089 16.161 5.00452 16.4946C5.87197 17.3621 7.33997 17.3621 8.20742 16.4946C8.54105 16.161 9.1416 16.161 9.54196 16.4946C9.94232 16.895 10.5429 17.1619 11.1434 17.1619C11.3436 17.1619 11.6105 17.0952 11.8107 17.0285V23.0339V23.0339ZM10.5429 31.4415H2.60235C1.93508 31.4415 1.33454 30.9077 1.33454 30.1737V24.5019C2.13526 24.7688 3.00271 24.5686 3.60326 23.9681C3.93689 23.6344 4.60416 23.6344 4.9378 23.9681C5.80525 24.8355 7.27324 24.8355 8.14069 23.9681C8.47433 23.6344 9.07487 23.6344 9.47523 23.9681C9.87559 24.3684 10.4761 24.6353 11.0767 24.6353C11.2769 24.6353 11.5438 24.5686 11.7439 24.5019V30.1737C11.8107 30.9077 11.2101 31.4415 10.5429 31.4415ZM11.8107 15.4937C11.477 15.8274 10.8098 15.8274 10.4761 15.4937C9.60869 14.6263 8.14069 14.6263 7.27324 15.4937C6.93961 15.8274 6.27234 15.8274 5.9387 15.4937C5.07125 14.6263 3.60326 14.6263 2.73581 15.4937C2.40217 15.8274 1.80163 15.8274 1.40127 15.4937V15.3603C1.40127 13.6921 1.86836 12.0239 2.73581 10.6227C3.73671 9.02122 4.27053 7.21959 4.27053 5.35123H8.94142C8.94142 7.21959 9.47523 9.02122 10.4761 10.6227C11.3436 12.0239 11.8107 13.6921 11.8107 15.3603V15.4937Z" fill="#440D0F"/>
<path d="M30.0937 12.1575C29.9603 12.024 29.7601 11.9573 29.5599 11.9573H14.5464C14.3462 11.9573 14.146 12.024 14.0125 12.1575C13.8791 12.2909 13.8124 12.4911 13.8791 12.6913L16.7483 32.1755C16.8151 32.5092 17.082 32.7761 17.4156 32.7761H26.7574C27.091 32.7761 27.3579 32.5092 27.4247 32.1755L30.2939 12.6913C30.2939 12.4911 30.2272 12.2909 30.0937 12.1575ZM17.9494 31.4416L17.6825 29.7734H26.357L26.1568 31.4416H17.9494ZM26.6239 28.4388H17.5491L15.3471 13.2918H28.8259L26.6239 28.4388Z" fill="#440D0F"/>
</svg>
