<svg width="24" height="28" viewBox="0 0 24 28" fill="none" xmlns="http://www.w3.org/2000/svg">
<path d="M23.6532 0.74349C23.6532 0.480259 23.4276 0.292236 23.2019 0.292236H20.156H0.451253C0.188022 0.292236 0 0.517863 0 0.74349V5.25602C0 5.51926 0.225626 5.70728 0.451253 5.70728H0.714484L3.08356 26.8786C3.12117 27.1042 3.30919 27.2922 3.53482 27.2922H17.0724C17.298 27.2922 17.5237 27.1042 17.5237 26.8786L19.8552 5.70728H20.1184C20.3816 5.70728 20.5696 5.48165 20.5696 5.25602V1.23235H23.1643C23.4652 1.19474 23.6532 1.00672 23.6532 0.74349ZM16.6588 26.3521H3.94847L2.82033 16.0861C2.93315 15.8229 3.422 14.9204 4.39972 14.6571C5.56546 14.3187 7.14485 14.9204 8.94986 16.3869C10.8301 17.8911 12.5223 18.4176 13.9513 18.4176C15.6058 18.4176 16.8844 17.7407 17.6741 17.139L16.6588 26.3521ZM17.8245 15.7853C17.4109 16.2365 14.2521 19.4705 9.51393 15.6725C7.40808 13.9803 5.60306 13.341 4.09889 13.7922C3.45961 13.9803 2.97075 14.3187 2.63231 14.6947L1.61699 5.70728H18.915L17.8245 15.7853ZM19.4415 4.80477H1.09053H0.864902V1.23235H19.6295V4.80477H19.4415Z" fill="#440D0F"/>
</svg>
