<svg width="19" height="19" viewBox="0 0 19 19" fill="none" xmlns="http://www.w3.org/2000/svg">
<path d="M12.1203 0.293223C12.1171 0.293082 12.114 0.292941 12.1107 0.2928C12.1066 0.2928 12.1025 0.292236 12.0985 0.292236C12.0968 0.292236 12.0949 0.292377 12.0932 0.292518C12.0903 0.292518 12.0872 0.2928 12.0842 0.292941C10.7421 0.306045 9.1728 2.16278 7.98692 4.65389C5.51794 2.56564 2.66344 1.26083 1.34088 1.99017C1.33623 1.99257 1.33144 1.99482 1.32679 1.99722C1.32369 1.99905 1.32017 2.00032 1.31707 2.00215C-0.701712 3.16773 -0.332535 9.99005 1.96454 13.9691C3.17338 16.0629 4.73013 17.1308 6.49655 17.1308C6.95619 17.1308 7.43048 17.0557 7.91619 16.9096C8.89705 17.8207 10.2548 18.2833 11.9656 18.2833H12.0968C12.0973 18.2833 12.0979 18.2834 12.0985 18.2834C12.0989 18.2834 12.0993 18.2833 12.0997 18.2833H12.233C14.2343 18.2833 15.7543 17.6525 16.7505 16.4084C17.6034 15.3433 18.036 13.8735 18.036 12.0398C18.0362 7.0038 14.6716 0.331127 12.1203 0.293223ZM10.2316 15.1902C8.94594 11.9625 10.5007 6.49963 11.6118 3.3698V16.985C10.999 16.568 10.5443 15.9755 10.2316 15.1902ZM6.44596 14.3665C4.19158 12.3786 2.99894 7.82163 2.44658 4.93147L6.18063 11.399C6.16908 11.615 6.16274 11.8289 6.16274 12.0397C6.16274 12.8966 6.25841 13.6728 6.44596 14.3665ZM6.36297 9.76826L2.30384 2.7374C3.43829 2.74374 5.62066 3.88946 7.5728 5.58726C7.02763 6.90897 6.59856 8.35383 6.36297 9.76826ZM2.80759 13.4824C1.02229 10.3899 0.634654 5.74381 1.24746 3.74419C1.67004 6.4847 2.95822 12.8632 6.0479 15.3027C6.39242 15.5748 6.75131 15.7854 7.12077 15.9451C7.15036 15.9924 7.18121 16.0386 7.21221 16.0846C5.47821 16.4198 4.0015 15.5503 2.80759 13.4824ZM8.20801 15.7999C7.49685 14.9118 7.13612 13.6467 7.13612 12.0398C7.13612 7.97691 9.46885 3.15858 11.191 1.70357C10.7993 2.70232 10.225 4.28104 9.73108 6.09269C8.60663 10.2176 8.47066 13.3994 9.32681 15.5498C9.56706 16.1531 9.88636 16.6716 10.2806 17.1052C9.41051 16.8704 8.71626 16.4346 8.20801 15.7999ZM15.9909 15.7999C15.4822 16.4353 14.7871 16.8713 13.9159 17.1057C14.3176 16.6641 14.6416 16.134 14.8834 15.5162C14.9814 15.2658 14.8579 14.9835 14.6075 14.8856C14.3573 14.7871 14.0747 14.9111 13.9769 15.1615C13.6639 15.961 13.2056 16.5631 12.5852 16.9851V3.36176C12.6318 3.49295 12.679 3.62653 12.7269 3.76546C12.7964 3.9671 12.9851 4.09364 13.187 4.09364C13.2395 4.09364 13.2931 4.08504 13.3458 4.06687C13.5998 3.97922 13.7348 3.7022 13.647 3.44814C13.4093 2.75896 13.1864 2.16588 13.0034 1.69892C14.725 3.14815 17.0628 7.97268 17.0628 12.04C17.0626 13.6466 16.7021 14.9117 15.9909 15.7999Z" fill="#440D0F"/>
<path d="M13.6435 4.99567C13.3858 5.07162 13.2383 5.34231 13.3142 5.60017C14.1868 8.56063 14.5673 11.1546 14.4141 13.1015C14.393 13.3695 14.5932 13.6039 14.8611 13.625C14.8741 13.626 14.887 13.6265 14.8998 13.6265C15.1514 13.6265 15.3644 13.4329 15.3846 13.178C15.5491 11.0843 15.1669 8.44227 14.248 5.32497C14.172 5.06711 13.9008 4.91972 13.6435 4.99567Z" fill="#440D0F"/>
</svg>
