<svg width="30" height="33" viewBox="0 0 30 33" fill="none" xmlns="http://www.w3.org/2000/svg">
<path d="M22.7643 7.08099L21.1714 6.74915C20.8396 6.68278 20.4414 6.88189 20.375 7.28009C20.3086 7.61193 20.5077 8.01014 20.9059 8.07651L22.4988 8.40835C22.5651 8.40835 22.5651 8.40835 22.6315 8.40835C22.9634 8.40835 23.2288 8.20924 23.2952 7.8774C23.2952 7.4792 23.0961 7.14736 22.7643 7.08099Z" fill="#440D0F"/>
<path d="M18.7158 0.776123H10.6189C4.77849 0.776123 0 5.48825 0 11.3286C0 12.8551 1.26099 14.1161 2.78745 14.1161C3.58387 14.1161 4.24755 14.7798 4.24755 15.5762V29.7789C4.24755 31.3054 5.50854 32.5664 7.035 32.5664H22.1669C23.6934 32.5664 24.9544 31.3054 24.9544 29.7789V15.6425C24.9544 14.8461 25.618 14.1825 26.4144 14.1825C27.9409 14.1825 29.2019 12.9215 29.2019 11.395C29.3346 5.48825 24.5561 0.776123 18.7158 0.776123ZM26.4808 12.7887C24.9544 12.7887 23.6934 14.0497 23.6934 15.5762V29.7789C23.6934 30.5753 23.0297 31.239 22.2333 31.239H7.10137C6.30496 31.239 5.64128 30.5753 5.64128 29.7789V15.6425C5.64128 14.1161 4.38029 12.8551 2.85382 12.8551C2.05741 12.8551 1.39373 12.1914 1.39373 11.395C1.32736 6.2183 5.50854 2.10348 10.6189 2.10348H18.7821C23.8925 2.10348 28.0073 6.2183 28.0073 11.3286C28.0073 12.125 27.3436 12.7887 26.4808 12.7887Z" fill="#440D0F"/>
<path d="M9.22522 7.61226C9.49069 7.34679 9.49069 6.94858 9.22522 6.68311C8.95975 6.41764 8.56154 6.41764 8.29607 6.68311L7.10145 7.87774C6.83598 8.14321 6.83598 8.54142 7.10145 8.80689C7.23418 8.93962 7.43329 9.00599 7.56602 9.00599C7.76513 9.00599 7.89786 8.93962 8.0306 8.80689L9.22522 7.61226Z" fill="#440D0F"/>
<path d="M8.09687 13.3863C8.0305 13.7181 8.2296 14.1163 8.62781 14.1827L10.2206 14.5145C10.287 14.5145 10.287 14.5145 10.3534 14.5145C10.6852 14.5145 10.9507 14.3154 11.0171 13.9836C11.0834 13.6518 10.8843 13.2536 10.4861 13.1872L8.89328 12.8554C8.49507 12.789 8.16323 12.9881 8.09687 13.3863Z" fill="#440D0F"/>
<path d="M15.8619 9.73574C16.1938 9.73574 16.4593 9.53664 16.5256 9.2048C16.592 8.87296 16.3929 8.47475 15.9947 8.40838L14.3355 8.07654C14.0036 8.01017 13.6054 8.20928 13.5391 8.60749C13.4727 8.93933 13.6718 9.33753 14.07 9.4039L15.6628 9.73574C15.7292 9.73574 15.7956 9.73574 15.8619 9.73574Z" fill="#440D0F"/>
<path d="M9.02611 25.3986L7.83149 26.5932C7.56602 26.8587 7.56602 27.2569 7.83149 27.5223C7.96423 27.6551 8.16333 27.7214 8.29606 27.7214C8.49517 27.7214 8.62791 27.6551 8.76064 27.5223L9.95526 26.3277C10.2207 26.0622 10.2207 25.664 9.95526 25.3986C9.75616 25.1331 9.29158 25.1331 9.02611 25.3986Z" fill="#440D0F"/>
<path d="M15.9285 26.5933L14.7338 27.7879C14.4684 28.0534 14.4684 28.4516 14.7338 28.717C14.8666 28.8498 15.0657 28.9161 15.1984 28.9161C15.3975 28.9161 15.5302 28.8498 15.663 28.717L16.8576 27.5224C17.1231 27.2569 17.1231 26.8587 16.8576 26.5933C16.6585 26.3278 16.1939 26.3278 15.9285 26.5933Z" fill="#440D0F"/>
<path d="M11.2826 20.1556L9.62339 19.9565C9.29155 19.8901 8.95971 20.1556 8.89334 20.5538C8.82697 20.8856 9.09245 21.2174 9.49065 21.2838L11.1499 21.4829H11.2162C11.5481 21.4829 11.8135 21.2174 11.8799 20.8856C11.8799 20.4874 11.6144 20.1556 11.2826 20.1556Z" fill="#440D0F"/>
<path d="M16.3265 18.3638H16.3929C16.7247 18.3638 16.9902 18.0983 17.0565 17.7665C17.1229 17.4346 16.8574 17.1028 16.4592 17.0364L14.8 16.8373C14.4682 16.7709 14.1363 17.0364 14.07 17.4346C14.0036 17.7665 14.2691 18.0983 14.6673 18.1647L16.3265 18.3638Z" fill="#440D0F"/>
<path d="M20.5741 14.3814L18.9149 14.1823C18.5831 14.1159 18.2512 14.3814 18.1848 14.7796C18.1185 15.1114 18.384 15.4433 18.7822 15.5096L20.4414 15.7087H20.5077C20.8396 15.7087 21.105 15.4433 21.1714 15.1114C21.1714 14.7796 20.9059 14.4478 20.5741 14.3814Z" fill="#440D0F"/>
<path d="M19.7776 21.8811L18.583 23.0757C18.3175 23.3412 18.3175 23.7394 18.583 24.0049C18.7157 24.1376 18.9148 24.204 19.0475 24.204C19.2466 24.204 19.3794 24.1376 19.5121 24.0049L20.7067 22.8103C20.9722 22.5448 20.9722 22.1466 20.7067 21.8811C20.4413 21.6156 20.043 21.6156 19.7776 21.8811Z" fill="#440D0F"/>
</svg>
