<svg width="34" height="31" viewBox="0 0 34 31" fill="none" xmlns="http://www.w3.org/2000/svg">
<path d="M8.35355 7.12151C8.35355 8.04182 8.56593 8.74975 8.91989 9.24531C9.06148 9.45768 9.27386 9.52848 9.48623 9.52848C9.62782 9.52848 9.76941 9.45768 9.91099 9.38689C10.265 9.17451 10.3358 8.74975 10.0526 8.39579C9.98179 8.2542 9.76941 7.90024 9.76941 7.05072C9.76941 6.272 9.91099 5.42248 10.1942 4.57296C10.6897 3.2279 10.4773 1.74124 9.62782 0.608552C9.41544 0.254587 8.99068 0.183794 8.63672 0.466966C8.35355 0.679345 8.28275 1.1041 8.49513 1.45807C9.06148 2.23679 9.20306 3.2279 8.8491 4.14821C8.49513 5.13931 8.35355 6.13041 8.35355 7.12151Z" fill="#440D0F"/>
<path d="M12.7428 7.12151C12.7428 8.04182 12.9552 8.74975 13.3091 9.24531C13.4507 9.45768 13.6631 9.52848 13.8755 9.52848C14.0171 9.52848 14.1587 9.45768 14.3002 9.38689C14.6542 9.17451 14.725 8.74975 14.4418 8.39579C14.371 8.2542 14.1587 7.90024 14.1587 7.05072C14.1587 6.272 14.3002 5.42248 14.5834 4.57296C15.079 3.2279 14.8666 1.74124 14.0171 0.608552C13.8047 0.254587 13.3799 0.183794 13.026 0.466966C12.7428 0.679345 12.672 1.1041 12.8844 1.45807C13.4507 2.23679 13.5923 3.2279 13.2383 4.14821C12.8844 5.13931 12.7428 6.13041 12.7428 7.12151Z" fill="#440D0F"/>
<path d="M17.1319 7.12151C17.1319 8.04182 17.3443 8.74975 17.6982 9.24531C17.8398 9.45768 18.0522 9.52848 18.2646 9.52848C18.4062 9.52848 18.5478 9.45768 18.6893 9.38689C19.0433 9.17451 19.1141 8.74975 18.8309 8.39579C18.7601 8.2542 18.5478 7.90024 18.5478 7.05072C18.5478 6.272 18.6893 5.42248 18.9725 4.57296C19.4681 3.2279 19.2557 1.74124 18.4062 0.608552C18.1938 0.254587 17.769 0.183794 17.4151 0.466966C17.0611 0.679345 16.9903 1.1041 17.2735 1.45807C17.8398 2.23679 17.9814 3.2279 17.6274 4.14821C17.2735 5.13931 17.1319 6.13041 17.1319 7.12151Z" fill="#440D0F"/>
<path d="M33.2727 12.8557C31.4321 12.8557 30.2286 13.6344 29.3791 14.4839V12.9973C29.3791 12.5725 29.0959 12.2894 28.6712 12.2894H23.4325L29.3083 7.61702C29.5915 7.40464 29.6623 6.90908 29.4499 6.62591C29.2375 6.34274 28.742 6.27195 28.4588 6.48433L21.1671 12.2894H5.30948C4.88472 12.2894 4.60155 12.5725 4.60155 12.9973V14.4839C3.75203 13.6344 2.54855 12.8557 0.778724 12.8557H0.707931C0.283172 12.8557 0 13.2097 0 13.5636C0 13.9176 0.353965 14.2716 0.707931 14.2716H0.778724C3.25648 14.2716 4.38917 16.3954 4.60155 16.8909V26.0232C4.60155 28.3594 6.51296 30.2708 8.84913 30.2708H25.1315C27.4677 30.2708 29.3791 28.3594 29.3791 26.0232V16.8909C29.5915 16.3954 30.795 14.2716 33.2019 14.2716H33.2727C33.6267 14.2716 33.9807 13.9884 33.9807 13.5636C33.9807 13.1389 33.6975 12.8557 33.2727 12.8557ZM25.1315 28.7841H8.84913C7.29169 28.7841 6.01741 27.5099 6.01741 25.9524V16.7493V13.7052H27.9633V16.7493V25.9524C27.9633 27.5099 26.689 28.7841 25.1315 28.7841Z" fill="#440D0F"/>
</svg>
