<svg width="31" height="25" viewBox="0 0 31 25" fill="none" xmlns="http://www.w3.org/2000/svg">
<path d="M10.19 24.2922V19.9444C10.19 19.9444 15.0053 16.4581 16.2809 10.7345" stroke="#440D0F" stroke-miterlimit="10"/>
<path d="M5.655 10.374C5.655 10.374 6.06908 15.7237 10.1898 19.9379" stroke="#440D0F" stroke-miterlimit="10"/>
<path d="M16.2818 10.7345L29.7126 5.81897C29.8662 5.76554 29.8796 5.55182 29.7393 5.47835L21.8518 1.09714C21.6581 0.990277 21.4311 0.97024 21.2307 1.04371L1.12785 7.66228C0.987595 7.70903 0.96088 7.89604 1.07442 7.98954L5.66268 10.3738L16.2818 10.7345Z" stroke="#440D0F" stroke-miterlimit="10"/>
<path d="M1 7.82262L1.06679 18.582C1.06679 18.6955 1.12022 18.8091 1.20704 18.8758L9.78915 23.6244C10.0162 23.8047 10.3234 23.8381 10.5839 23.7179L29.5046 16.6184C29.705 16.5249 29.8319 16.3246 29.8319 16.1042V5.66541" stroke="#440D0F" stroke-miterlimit="10"/>
</svg>
