<svg width="26" height="30" viewBox="0 0 26 30" fill="none" xmlns="http://www.w3.org/2000/svg">
<path d="M25.9269 6.9764C25.9269 4.79562 24.1702 3.03889 21.9894 3.03889C21.5654 3.03889 21.2019 3.09947 20.7779 3.22062C20.051 2.25139 18.9 1.64562 17.6279 1.64562C17.0221 1.64562 16.4769 1.76678 15.9923 2.00908C15.2048 1.03985 14.0539 0.434082 12.8423 0.434082C11.6308 0.434082 10.5404 0.979275 9.75289 1.88793C9.26828 1.7062 8.78366 1.64562 8.29905 1.64562C7.02693 1.64562 5.87597 2.25139 5.14904 3.22062C4.78558 3.09947 4.36154 3.03889 3.9375 3.03889C1.75673 3.03889 0 4.79562 0 6.9764C0 8.43024 0.787501 9.76294 1.99904 10.4293C1.63558 11.0351 1.45385 11.7014 1.45385 12.3677C1.45385 14.4879 3.15 16.2447 5.2702 16.3053C8.60193 19.6976 10.5404 24.1197 10.6615 28.9053C10.6615 29.2081 10.9644 29.511 11.2673 29.511C11.5096 29.511 11.7519 29.3293 11.8125 29.087C11.8731 29.087 11.9337 29.1476 11.9942 29.1476C12.176 29.1476 12.3577 29.087 12.4789 28.9053C12.6 29.0264 12.7212 29.1476 12.9029 29.1476C13.2058 29.1476 13.5087 28.9053 13.5087 28.5418C13.6298 24.786 15.1442 21.212 17.8096 18.5466C18.9 18.2437 19.8087 17.4562 20.2933 16.3658C20.6568 16.487 21.0808 16.5476 21.4443 16.5476C23.625 16.5476 25.3818 14.7908 25.3818 12.6101C25.3818 11.6408 25.0183 10.7322 24.4125 10.0052C25.3818 9.27832 25.9269 8.18794 25.9269 6.9764ZM6.72405 16.1235C6.90578 16.0629 7.14808 15.9418 7.32981 15.8812C7.93558 17.2745 9.38943 18.1831 10.9039 18.1831C11.0856 18.1831 11.2673 18.1831 11.3885 18.1226V25.1495C10.6615 21.7572 9.08655 18.6678 6.72405 16.1235ZM12.6606 25.937V17.7591C13.0241 17.5774 13.3269 17.3956 13.5692 17.1533C14.175 18.0014 15.0837 18.5466 16.1135 18.7283C14.3567 20.7879 13.1452 23.2716 12.6606 25.937ZM23.201 10.4293C23.9279 10.9745 24.2914 11.762 24.2914 12.6101C24.2914 14.1245 23.0798 15.336 21.5654 15.336C21.1414 15.336 20.7173 15.2149 20.2933 15.0331C20.1116 14.9726 19.9298 14.9726 19.7481 15.0331C19.5664 15.0937 19.4452 15.2754 19.3846 15.4572C19.0817 16.6687 17.9914 17.5168 16.7192 17.5168C15.6289 17.5168 14.6596 16.8504 14.175 15.8206C14.1144 15.6389 13.8721 15.4572 13.6904 15.4572H13.6298C13.4481 15.4572 13.2664 15.5783 13.1452 15.6995C12.6606 16.4264 11.8125 16.911 10.9039 16.911C9.63174 16.911 8.48078 16.0024 8.23847 14.7302C8.17789 14.5485 8.05674 14.3668 7.81443 14.3062C7.6327 14.2456 7.39039 14.3062 7.20866 14.4274C6.72404 14.8514 6.0577 15.0937 5.39135 15.0937C3.87693 15.0937 2.66539 13.8822 2.66539 12.3677C2.66539 11.7014 2.9077 11.0351 3.33173 10.5504C3.45289 10.3687 3.51347 10.187 3.45289 10.0052C3.39231 9.82351 3.27116 9.64178 3.02885 9.58121C1.87789 9.21774 1.09039 8.18794 1.09039 6.9764C1.09039 5.46197 2.30193 4.25043 3.81635 4.25043C4.24039 4.25043 4.60385 4.31101 4.96731 4.49274C5.2702 4.61389 5.63366 4.49274 5.75481 4.25043C6.23943 3.34178 7.14808 2.79658 8.17789 2.79658C8.66251 2.79658 9.08655 2.91774 9.51059 3.16005C9.81347 3.34178 10.1769 3.22062 10.2981 2.91774C10.9644 2.13024 11.8731 1.64562 12.8423 1.64562C13.8721 1.64562 14.7808 2.19081 15.2654 3.09947C15.326 3.22062 15.5077 3.34178 15.6289 3.40235C15.8106 3.46293 15.9923 3.40235 16.1135 3.34178C16.5375 2.97832 17.0827 2.85716 17.6279 2.85716C18.6577 2.85716 19.5664 3.40235 20.051 4.31101C20.1721 4.55332 20.5356 4.67447 20.8385 4.49274C21.2019 4.31101 21.626 4.25043 21.9894 4.25043C23.5039 4.25043 24.7154 5.46197 24.7154 6.9764C24.7154 8.0062 24.1702 8.91486 23.2616 9.39948C23.0798 9.52063 22.9587 9.70236 22.9587 9.88409C22.8981 10.1264 23.0193 10.3081 23.201 10.4293Z" fill="#440D0F"/>
<path d="M13.2058 10.8535C11.9337 10.2477 10.4193 10.3083 9.26833 11.1564C8.96544 11.3381 8.90487 11.7015 9.0866 12.0044C9.20775 12.1862 9.38948 12.2467 9.57121 12.2467C9.69237 12.2467 9.81352 12.1862 9.93468 12.1256C10.7222 11.5804 11.8126 11.5198 12.6606 11.9439C12.9635 12.065 13.327 11.9439 13.4481 11.641C13.6299 11.3381 13.5087 11.0352 13.2058 10.8535Z" fill="#440D0F"/>
<path d="M20.1115 10.8531C18.7788 10.8531 17.5673 11.5195 16.8404 12.5493C16.6587 12.8522 16.7192 13.2157 17.0221 13.3974C17.1433 13.458 17.2644 13.5185 17.3856 13.5185C17.5673 13.5185 17.749 13.3974 17.8702 13.2762C18.3548 12.5493 19.2029 12.0647 20.1115 12.0647C20.475 12.0647 20.7173 11.8224 20.7173 11.4589C20.7173 11.0955 20.475 10.8531 20.1115 10.8531Z" fill="#440D0F"/>
<path d="M17.8096 7.88528C18.1731 7.88528 18.5365 7.8247 18.9 7.70355C19.2029 7.58239 19.3846 7.27951 19.2634 6.91605C19.1423 6.61316 18.8394 6.43143 18.4759 6.55259C18.1125 6.67374 17.8096 6.67374 17.4461 6.67374C16.5981 6.55259 15.8711 6.00739 15.5682 5.21989C15.4471 4.91701 15.0836 4.73528 14.7807 4.85643C14.4779 4.97758 14.2961 5.34105 14.4173 5.64393C14.9019 6.85547 15.9923 7.70355 17.2644 7.88528C17.5067 7.88528 17.6884 7.88528 17.8096 7.88528Z" fill="#440D0F"/>
<path d="M9.08655 8.18796C9.02598 7.88507 8.66251 7.64276 8.35963 7.76392C7.51155 8.00623 6.6029 7.70334 5.93655 7.09757C5.69424 6.85526 5.45193 6.4918 5.33078 6.12834C5.20963 5.82545 4.84616 5.64372 4.54328 5.76488C4.24039 5.88603 4.11924 6.18892 4.17982 6.4918C4.36155 7.03699 4.66443 7.46103 5.02789 7.88507C5.75482 8.612 6.66347 8.97546 7.6327 8.97546C7.93559 8.97546 8.23847 8.91488 8.54136 8.8543C8.9654 8.79373 9.14713 8.49084 9.08655 8.18796Z" fill="#440D0F"/>
</svg>
