<svg width="35" height="23" viewBox="0 0 35 23" fill="none" xmlns="http://www.w3.org/2000/svg">
<path d="M33.2727 11.015C31.7861 11.015 30.6534 11.6522 29.9455 12.3601C29.8747 12.0769 29.5915 11.8645 29.3083 11.8645H4.67234C4.38917 11.8645 4.106 12.0769 4.0352 12.3601C3.32727 11.6522 2.26538 11.015 0.778724 11.015H0.707931C0.283172 11.015 0 11.369 0 11.7229C0 12.0769 0.353965 12.4309 0.707931 12.4309C0.707931 12.4309 0.707931 12.4309 0.778724 12.4309C3.11489 12.4309 4.0352 14.6255 4.0352 14.767C4.106 14.8378 4.17679 14.9794 4.24758 15.0502C4.74313 17.6696 6.01741 20.0765 8.07041 21.9879C8.21199 22.1295 8.35358 22.2003 8.56596 22.2003H25.4855C25.6979 22.2003 25.8395 22.1295 25.9811 21.9879C27.9633 20.0765 29.3083 17.6696 29.8039 15.0502C29.8747 14.9794 29.9455 14.9086 30.0163 14.767C30.0163 14.767 30.9366 12.4309 33.2727 12.4309C33.2727 12.4309 33.2727 12.4309 33.3435 12.4309C33.6975 12.4309 34.0515 12.1477 34.0515 11.7229C33.9807 11.369 33.6975 11.015 33.2727 11.015ZM25.2023 20.7137H8.77834C6.72534 18.6607 5.59265 16.0413 5.38027 13.2096H28.5296C28.388 16.1121 27.1845 18.7315 25.2023 20.7137Z" fill="#440D0F"/>
<path d="M10.973 7.12151C10.973 8.04182 11.1854 8.74975 11.5393 9.24531C11.6809 9.45768 11.8933 9.52848 12.1057 9.52848C12.2473 9.52848 12.3888 9.45768 12.5304 9.38689C12.8844 9.17451 12.9552 8.74975 12.672 8.39579C12.6012 8.2542 12.3888 7.90024 12.3888 7.05072C12.3888 6.272 12.5304 5.42248 12.8136 4.57296C13.3092 3.2279 13.0968 1.74124 12.2473 0.608552C12.0349 0.254587 11.6101 0.183794 11.2562 0.466966C10.9022 0.679346 10.8314 1.1041 11.0438 1.45807C11.6101 2.23679 11.7517 3.2279 11.3977 4.14821C11.1146 5.13931 10.9022 6.13041 10.973 7.12151Z" fill="#440D0F"/>
<path d="M15.2914 7.12151C15.2914 8.04182 15.5037 8.74975 15.8577 9.24531C15.9993 9.45768 16.2117 9.52848 16.424 9.52848C16.5656 9.52848 16.7072 9.45768 16.8488 9.38689C17.2028 9.17451 17.2736 8.74975 17.0612 8.39579C16.9904 8.2542 16.778 7.90024 16.778 7.05072C16.778 6.272 16.9196 5.42248 17.2028 4.57296C17.6983 3.2279 17.4859 1.74124 16.6364 0.608552C16.424 0.254587 15.9993 0.183794 15.6453 0.466966C15.2914 0.679346 15.2206 1.1041 15.4329 1.45807C15.9993 2.23679 16.1409 3.2279 15.7869 4.14821C15.5037 5.13931 15.2914 6.13041 15.2914 7.12151Z" fill="#440D0F"/>
<path d="M19.6805 7.12151C19.6805 8.04182 19.8929 8.74975 20.2469 9.24531C20.3885 9.45768 20.6008 9.52848 20.8132 9.52848C20.9548 9.52848 21.0964 9.45768 21.238 9.38689C21.5919 9.17451 21.6627 8.74975 21.3796 8.39579C21.3088 8.2542 21.0964 7.90024 21.0964 7.05072C21.0964 6.272 21.238 5.42248 21.5212 4.57296C22.0167 3.2279 21.8043 1.74124 20.9548 0.608552C20.7424 0.254587 20.3177 0.183794 19.9637 0.466966C19.6097 0.679346 19.539 1.1041 19.7513 1.45807C20.3177 2.23679 20.4593 3.2279 20.1053 4.14821C19.8929 5.13931 19.6805 6.13041 19.6805 7.12151Z" fill="#440D0F"/>
</svg>
