<svg width="34" height="30" viewBox="0 0 34 30" fill="none" xmlns="http://www.w3.org/2000/svg">
<path d="M14.3142 5.61968C14.3142 6.38789 14.4539 6.94659 14.8031 7.36561C14.9427 7.57512 15.1523 7.64496 15.3618 7.64496C15.5014 7.64496 15.6411 7.57512 15.7808 7.50528C16.13 7.29577 16.1998 6.87675 15.9205 6.52756C15.8506 6.45772 15.711 6.17838 15.711 5.54984C15.711 4.9213 15.8506 4.29277 16.0601 3.5944C16.4093 2.477 16.2697 1.28977 15.6411 0.312045C15.4316 -0.0371409 15.0126 -0.106978 14.6634 0.172371C14.3142 0.381883 14.2444 0.800906 14.5237 1.15009C14.9427 1.70879 15.0126 2.477 14.8031 3.17537C14.4539 4.01342 14.3142 4.85147 14.3142 5.61968Z" fill="#440D0F"/>
<path d="M17.8062 5.61966C17.8062 6.38787 17.9458 6.94657 18.295 7.36559C18.4347 7.57511 18.6442 7.64494 18.8537 7.64494C18.9934 7.64494 19.1331 7.57511 19.2727 7.50527C19.6219 7.29576 19.6918 6.87673 19.4124 6.52755C19.3426 6.45771 19.2029 6.17836 19.2029 5.54983C19.2029 4.92129 19.3426 4.29275 19.5521 3.59438C19.9013 2.47699 19.7616 1.28975 19.1331 0.312031C18.8537 0.0326821 18.4347 -0.0371552 18.1553 0.172357C17.8062 0.381868 17.7363 0.800892 17.9458 1.15008C18.3649 1.70878 18.4347 2.47699 18.2252 3.17536C17.9458 4.01341 17.8062 4.85145 17.8062 5.61966Z" fill="#440D0F"/>
<path d="M21.298 5.61968C21.298 6.38789 21.4376 6.94659 21.7868 7.36561C21.9265 7.57512 22.136 7.64496 22.3455 7.64496C22.4852 7.64496 22.6249 7.57512 22.7646 7.50528C23.1137 7.29577 23.1836 6.87675 22.9042 6.52756C22.8344 6.45772 22.6947 6.17838 22.6947 5.54984C22.6947 4.9213 22.8344 4.29277 23.0439 3.5944C23.3931 2.477 23.2534 1.28977 22.6249 0.312045C22.4154 -0.0371409 21.9963 -0.106978 21.6472 0.172371C21.298 0.381883 21.2281 0.800906 21.5075 1.15009C21.9265 1.70879 21.9963 2.477 21.7868 3.17537C21.4376 4.01342 21.298 4.85147 21.298 5.61968Z" fill="#440D0F"/>
<path d="M31.145 18.749H28.9102C29.4689 16.9333 29.3293 15.0477 28.4912 13.3716C27.6532 11.6955 26.1167 10.4384 24.301 9.87971C23.0439 9.53052 21.6472 9.46068 20.3901 9.87971C17.5268 10.7178 14.7333 10.7178 12.2191 9.94954C12.0096 9.87971 11.8001 9.87971 11.5208 9.87971C10.7525 9.87971 10.0542 10.2289 9.49548 10.7178L6.70198 9.87971C7.12101 8.41312 6.21312 6.80687 4.74654 6.38784C4.46719 6.31801 4.18784 6.24817 3.90849 6.24817C2.65142 6.24817 1.46419 7.08622 1.115 8.34329C0.905492 8.97182 0.975329 9.67019 1.18484 10.2987C0.626143 10.6479 0.20712 11.2066 0.067445 11.8351C-0.0722295 12.5335 -0.00239224 13.3716 0.346794 14.0001C0.69598 14.6985 1.32452 15.1873 2.09273 15.3968C2.37207 15.4667 2.65142 15.5365 2.93077 15.5365C4.18784 15.5365 5.30524 14.6985 5.65443 13.5811L8.30824 14.3493C8.37808 15.327 9.00661 16.1651 9.98434 16.4444C11.3811 16.8634 12.6382 17.4221 13.8254 18.1903C14.1047 18.33 14.3142 18.5395 14.5936 18.749H4.18784C2.86094 18.749 1.81338 19.7966 1.81338 21.1235C1.81338 21.9616 2.30224 22.7298 2.93077 23.1488C3.76882 25.4534 5.37508 27.2692 7.47019 28.3167C7.40036 28.4564 7.33052 28.5961 7.33052 28.7358C7.33052 29.1548 7.60987 29.4341 8.02889 29.4341H11.8699H22.6249H26.5358C26.9548 29.4341 27.2341 29.1548 27.2341 28.7358C27.2341 28.5961 27.1643 28.4564 27.0945 28.3167C29.0499 27.2692 30.6562 25.5931 31.4942 23.4281C32.6116 23.2885 33.5195 22.3107 33.5195 21.0537C33.5195 19.8664 32.4719 18.749 31.145 18.749ZM8.51775 13.0224L5.30524 12.0447C5.09573 11.9748 4.88622 11.9748 4.6767 12.1145C4.46719 12.2542 4.39736 12.4637 4.39736 12.6732C4.39736 12.8129 4.39735 12.9525 4.32752 13.0922C4.11801 13.8604 3.21012 14.3493 2.44191 14.0699C2.02289 13.9303 1.74354 13.7208 1.53403 13.3716C1.32452 13.0224 1.32452 12.6034 1.39435 12.2542C1.53403 11.7653 1.88321 11.4161 2.37207 11.2765C2.58159 11.2066 2.7911 11.0669 2.86094 10.7876C2.93077 10.5781 2.86094 10.2987 2.72126 10.1591C2.44191 9.74003 2.30224 9.25117 2.44191 8.76231C2.65142 8.13377 3.21012 7.71475 3.90849 7.71475C4.04817 7.71475 4.18784 7.71475 4.32752 7.78459C5.09573 7.9941 5.58459 8.83215 5.30524 9.6702C5.2354 9.80987 5.2354 9.94954 5.16556 10.0194C5.02589 10.2289 5.02589 10.4384 5.09573 10.6479C5.16557 10.8574 5.30524 10.9971 5.51475 11.0669L8.72727 12.0447L8.51775 13.0224ZM10.4034 15.1175C9.84466 14.9778 9.56531 14.4191 9.70499 13.8604L10.1938 12.1843C10.4034 11.486 11.1716 11.0669 11.8699 11.2765C14.5936 12.1145 17.6664 12.0447 20.8091 11.2066C21.7868 10.9273 22.9042 10.9273 23.882 11.2066C25.3485 11.6256 26.5358 12.6034 27.2341 14.0001C27.9325 15.327 28.0722 16.9333 27.5135 18.33C27.4437 18.4697 27.4437 18.6094 27.3738 18.6792H16.7586C16.0602 18.0507 15.3618 17.492 14.5936 17.0031C13.3365 16.2349 11.9398 15.6064 10.4034 15.1175ZM22.6947 28.0374H11.8699C8.72727 28.0374 5.93377 26.2216 4.60687 23.498H29.9578C28.6309 26.2915 25.7676 28.0374 22.6947 28.0374ZM31.145 22.1012H31.0054H4.18784C3.62915 22.1012 3.21012 21.6822 3.21012 21.1235C3.21012 20.5648 3.62915 20.1458 4.18784 20.1458H16.4792H27.8627H31.145C31.7037 20.1458 32.1227 20.5648 32.1227 21.1235C32.1227 21.6822 31.7037 22.1012 31.145 22.1012Z" fill="#440D0F"/>
</svg>
