<svg width="24" height="25" viewBox="0 0 24 25" fill="none" xmlns="http://www.w3.org/2000/svg">
<path d="M22.8384 18.1568H20.1184L18.9988 3.58634C18.935 2.79995 18.5783 2.06617 17.9993 1.53021C17.4203 0.994246 16.6612 0.695162 15.8722 0.692139H7.03064C6.22701 0.69212 5.45407 1.00074 4.87146 1.55427C4.28886 2.10779 3.94109 2.86393 3.89999 3.6665L3.15707 18.1568H0.447811C0.329044 18.1568 0.215142 18.204 0.131161 18.2879C0.0471801 18.3719 0 18.4858 0 18.6046V21.7393C0 21.858 0.0471801 21.9719 0.131161 22.0559C0.215142 22.1399 0.329044 22.1871 0.447811 22.1871H1.91619L2.70971 24.5677C2.73942 24.6569 2.79646 24.7345 2.87273 24.7894C2.94901 24.8444 3.04066 24.874 3.13468 24.874H20.1515C20.2455 24.874 20.3372 24.8444 20.4135 24.7894C20.4897 24.7345 20.5468 24.6569 20.5765 24.5677L21.37 22.1871H22.8384C22.9572 22.1871 23.0711 22.1399 23.155 22.0559C23.239 21.9719 23.2862 21.858 23.2862 21.7393V18.6046C23.2862 18.4858 23.239 18.3719 23.155 18.2879C23.0711 18.204 22.9572 18.1568 22.8384 18.1568ZM4.79472 3.71173C4.82422 3.13861 5.07265 2.59869 5.48873 2.20345C5.9048 1.8082 6.45676 1.58781 7.03064 1.58776H15.8722C16.4357 1.59018 16.9777 1.80396 17.391 2.18682C17.8044 2.56967 18.059 3.09372 18.1046 3.65531L19.2201 18.1568H4.05404L4.79472 3.71173ZM19.8286 23.9783H3.45755L2.86017 22.1871H20.426L19.8286 23.9783ZM22.3906 21.2915H0.895623V19.0524H22.3906V21.2915Z" fill="#440D0F"/>
<path d="M16.127 8.75264H16.1472C16.3323 8.75269 16.5155 8.71447 16.6851 8.64039C16.8548 8.56631 17.0073 8.45797 17.1331 8.32215C17.2589 8.18633 17.3553 8.02598 17.4162 7.85115C17.4771 7.67632 17.5012 7.49079 17.487 7.30621L17.2116 3.7264C17.1849 3.38899 17.0324 3.07394 16.7843 2.84369C16.5362 2.61344 16.2107 2.4848 15.8722 2.48328H14.3528C13.9965 2.48328 13.6548 2.62482 13.4029 2.87676C13.1509 3.1287 13.0094 3.47041 13.0094 3.82671C13.0094 4.18301 13.1509 4.52472 13.4029 4.77666C13.6548 5.02861 13.9965 5.17014 14.3528 5.17014C14.4276 5.17046 14.4996 5.19884 14.5545 5.24967C14.6094 5.3005 14.6432 5.37008 14.6493 5.44465L14.8082 7.51041C14.832 7.84519 14.9809 8.15878 15.2252 8.38891C15.4695 8.61904 15.7914 8.74887 16.127 8.75264V8.75264ZM14.3528 4.27452C14.234 4.27452 14.1201 4.22734 14.0362 4.14336C13.9522 4.05938 13.905 3.94548 13.905 3.82671C13.905 3.70794 13.9522 3.59404 14.0362 3.51006C14.1201 3.42608 14.234 3.3789 14.3528 3.3789H15.8722C15.9853 3.37857 16.0944 3.42105 16.1774 3.49781C16.2605 3.57456 16.3114 3.6799 16.32 3.79268L16.5954 7.37517C16.6006 7.43722 16.5925 7.49966 16.5718 7.55838C16.5512 7.61711 16.5183 7.67081 16.4754 7.71595C16.3869 7.80469 16.2672 7.85531 16.1418 7.85701C16.0303 7.85522 15.9234 7.81186 15.8421 7.7354C15.7609 7.65895 15.7111 7.55492 15.7025 7.44368L15.5435 5.37838C15.5198 5.07852 15.3842 4.79855 15.1636 4.59405C14.943 4.38956 14.6536 4.2755 14.3528 4.27452Z" fill="#440D0F"/>
<path d="M16.4615 10.1199C16.09 10.1276 15.7364 10.2805 15.4763 10.5457C15.2985 10.7369 15.1804 10.9758 15.1367 11.2332C15.0929 11.4906 15.1254 11.7552 15.2301 11.9943C15.3348 12.2335 15.5072 12.4368 15.726 12.5792C15.9447 12.7217 16.2004 12.797 16.4615 12.796H16.4673C16.643 12.7958 16.817 12.761 16.9793 12.6936C17.1415 12.6262 17.2889 12.5275 17.4131 12.4031C17.5372 12.2788 17.6356 12.1312 17.7027 11.9687C17.7698 11.8063 17.8042 11.6323 17.804 11.4566C17.8038 11.2809 17.7691 11.1069 17.7016 10.9446C17.6342 10.7824 17.5355 10.635 17.4112 10.5108C17.2868 10.3867 17.1392 10.2883 16.9768 10.2212C16.8144 10.1541 16.6403 10.1197 16.4646 10.1199H16.4615ZM16.7884 11.7593C16.7458 11.805 16.694 11.8412 16.6364 11.8655C16.5788 11.8898 16.5168 11.9017 16.4543 11.9004H16.4521C16.341 11.8994 16.2344 11.8569 16.1531 11.7812C16.0718 11.7056 16.0217 11.6022 16.0128 11.4915C16.0078 11.4305 16.0156 11.3691 16.0358 11.3114C16.0561 11.2536 16.0882 11.2007 16.1301 11.1561C16.1727 11.1105 16.2245 11.0743 16.2821 11.0501C16.3397 11.0259 16.4017 11.0141 16.4642 11.0155H16.4669C16.5778 11.0166 16.6843 11.0591 16.7654 11.1346C16.8466 11.2102 16.8967 11.3134 16.9057 11.4239C16.9106 11.4849 16.9027 11.5462 16.8825 11.604C16.8623 11.6618 16.8302 11.7147 16.7884 11.7593V11.7593Z" fill="#440D0F"/>
</svg>
