<svg width="40" height="16" viewBox="0 0 40 16" fill="none" xmlns="http://www.w3.org/2000/svg">
<path d="M39.9239 12.7493C39.8399 12.5805 39.6299 12.4538 39.4198 12.4538H37.1514V0.548813C37.1514 0.253299 36.8993 0 36.6053 0H26.0193H25.9353H3.41917C3.12512 0 2.87307 0.253299 2.87307 0.548813V12.496H0.562647C0.352608 12.496 0.184577 12.6227 0.0585537 12.7916C-0.0254618 12.9604 -0.0254619 13.2137 0.100561 13.3826L1.73886 15.7889C1.86489 15.8734 2.03292 16 2.20095 16H37.8655C38.0336 16 38.2436 15.9156 38.3276 15.7467L39.8819 13.3404C40.0079 13.1715 40.0499 12.9182 39.9239 12.7493ZM36.0592 12.4538H26.6074V1.09763H36.0592V12.4538ZM3.96527 1.09763H25.3892V12.4538H3.96527V1.09763V1.09763ZM37.5715 14.8602H2.495L1.61284 13.5937H3.41917H25.9353H26.0193H36.6053H38.4116L37.5715 14.8602Z" fill="#440D0F"/>
</svg>
