<svg width="31" height="31" viewBox="0 0 31 31" fill="none" xmlns="http://www.w3.org/2000/svg">
<path d="M29.7129 24.173H28.5117H28.4485H15.1725H0.632189C0.252876 24.173 0 24.4258 0 24.8052C0 25.1845 0.252876 25.4374 0.632189 25.4374H1.51725C3.16094 28.7247 6.57476 30.811 10.3047 30.811H20.1036C23.6439 30.811 26.868 28.9144 28.6382 25.8799L28.891 25.4374H29.7761C30.1554 25.4374 30.4083 25.1845 30.4083 24.8052C30.3451 24.4891 30.0922 24.173 29.7129 24.173ZM20.0404 29.5466H10.2415C7.27017 29.5466 4.48854 27.9661 2.90807 25.4374H15.1725H27.3738C25.7933 27.9661 23.0117 29.5466 20.0404 29.5466Z" fill="#440D0F"/>
<path d="M24.4025 13.3625C23.5174 12.4775 22.9484 11.1499 22.9484 9.82228C22.9484 7.8625 21.5576 6.21881 19.7243 5.90271C19.8507 5.33374 20.23 4.44868 21.3047 4.06936C21.6208 3.94293 21.8105 3.62683 21.6841 3.24752C21.5576 2.93142 21.2415 2.74177 20.8622 2.8682C19.0921 3.43717 18.5863 5.01765 18.4599 5.83949C17.5748 5.96593 16.8162 6.40846 16.184 7.04065C15.7415 5.39696 14.4139 4.13258 12.7702 3.87971C12.8966 3.1843 13.3392 2.10958 14.6035 1.73026C14.9196 1.60383 15.1093 1.28773 14.9829 0.908419C14.8564 0.592325 14.5403 0.402668 14.161 0.529106C12.138 1.22451 11.6323 2.93142 11.4426 3.87971C9.35637 4.13258 7.71268 5.96593 7.71268 8.17859V8.30503C7.71268 9.82228 7.14371 11.2763 6.06899 12.2878C4.86783 13.489 4.17242 15.0694 4.17242 16.6499C4.17242 20.3166 7.71268 23.3511 12.0116 23.3511C13.2759 23.3511 14.4771 23.0982 15.615 22.5925C16.6265 23.0982 17.7645 23.3511 19.0289 23.3511C22.8852 23.3511 26.0462 20.6327 26.0462 17.3453C26.1094 15.8281 25.4772 14.4373 24.4025 13.3625ZM12.0748 22.0235C8.47131 22.0235 5.50002 19.6212 5.50002 16.5867C5.50002 15.3223 6.00577 14.1212 7.01727 13.1729C8.28165 11.9085 9.04028 10.1384 9.04028 8.24181V8.11537C9.04028 6.40846 10.4311 5.08087 12.0748 5.08087C12.138 5.08087 12.2012 5.08087 12.2644 5.08087C13.8449 5.2073 15.1093 6.59812 15.1093 8.24181C15.1093 8.5579 15.1093 8.874 15.1725 9.19009C15.1725 9.37975 15.1093 9.50619 15.1093 9.69584V9.82228C15.1093 11.1499 14.6035 12.4143 13.6553 13.3625C13.1495 13.8683 12.707 14.4373 12.4541 15.0694C12.138 15.7649 11.9483 16.5235 11.9483 17.2821C11.9483 18.7361 12.5173 20.0637 13.5288 21.0752C13.6553 21.2017 14.0978 21.6442 14.161 21.7074C13.592 21.8971 12.8334 22.0235 12.0748 22.0235ZM19.0289 22.0235C17.8909 22.0235 16.8162 21.7707 15.9311 21.2649C15.5518 21.0752 13.4656 19.9373 13.2759 17.3453V17.2821C13.2759 16.3338 13.6553 15.3855 14.2874 14.6269C14.3507 14.5005 14.4771 14.374 14.6035 14.3108C15.7415 13.1729 16.4369 11.5924 16.4369 9.8855V9.75906V9.69584C16.5001 8.24181 17.638 7.10387 19.0921 7.10387C19.1553 7.10387 19.2185 7.10387 19.2817 7.10387C20.6726 7.16709 21.7473 8.36825 21.7473 9.82228C21.7473 11.466 22.3795 13.1097 23.5174 14.2476C24.3392 15.0694 24.845 16.1442 24.845 17.2821C24.845 19.8741 22.253 22.0235 19.0289 22.0235Z" fill="#440D0F"/>
<path d="M20.0403 16.713C20.1668 16.8395 20.3564 16.9027 20.4829 16.9027C20.6093 16.9027 20.7989 16.8395 20.9254 16.713C21.1783 16.4602 21.1783 16.0809 20.9254 15.828L20.4196 15.3222C20.1668 15.0693 19.7874 15.0693 19.5346 15.3222C19.2817 15.5751 19.2817 15.9544 19.5346 16.2073L20.0403 16.713Z" fill="#440D0F"/>
<path d="M17.1956 16.713C17.322 16.8395 17.5117 16.9027 17.6381 16.9027C17.7645 16.9027 17.9542 16.8395 18.0806 16.713L18.5864 16.2073C18.8393 15.9544 18.8393 15.5751 18.5864 15.3222C18.3335 15.0693 17.9542 15.0693 17.7013 15.3222L17.1956 15.828C16.9427 16.0809 16.9427 16.4602 17.1956 16.713Z" fill="#440D0F"/>
</svg>
