<svg width="31" height="31" viewBox="0 0 31 31" fill="none" xmlns="http://www.w3.org/2000/svg">
<path d="M20.5093 11.7582C19.7474 11.7582 18.9854 11.8851 18.2235 12.1391C18.4774 11.4407 18.6044 10.6787 18.6044 9.91677C18.6044 8.13888 17.906 6.48798 16.6361 5.28155C16.3821 5.02757 16.0011 5.02757 15.7471 5.28155C14.5407 6.55148 13.8422 8.20237 13.8422 9.98027C13.8422 11.7582 14.5407 13.4091 15.8106 14.6155C17.0805 15.8219 18.6679 16.4569 20.3823 16.4569C22.1602 16.4569 23.8746 15.7584 25.081 14.4885C25.335 14.2345 25.335 13.8535 25.081 13.5995C23.8746 12.4566 22.2237 11.7582 20.5093 11.7582ZM16.1916 6.74196C16.9535 7.69441 17.3345 8.77384 17.3345 9.98027C17.3345 11.1867 16.9535 12.3296 16.2551 13.2186C15.4931 12.2661 15.1121 11.1867 15.1121 9.98027C15.1121 8.83734 15.4931 7.69441 16.1916 6.74196ZM20.4458 15.3139C19.3029 15.3139 18.16 14.933 17.2075 14.2345C18.16 13.4726 19.3029 13.0916 20.5093 13.0916C21.6522 13.0916 22.7952 13.4726 23.7476 14.171C22.7952 14.8695 21.6522 15.3139 20.4458 15.3139Z" fill="#440D0F"/>
<path d="M16.3185 16.076C15.5565 16.076 14.7311 16.203 14.0326 16.457C14.858 14.1076 14.2866 11.4408 12.4452 9.59942C12.3182 9.47243 12.1277 9.40894 12.0007 9.40894C11.8102 9.40894 11.6832 9.47243 11.5563 9.59942C10.3498 10.8693 9.65137 12.5202 9.65137 14.2981C9.65137 16.076 10.3498 17.7269 11.6197 18.9334C12.8897 20.1398 14.4771 20.8382 16.1915 20.8382C17.9694 20.8382 19.6838 20.1398 20.8902 18.8699C21.0172 18.7429 21.0807 18.6159 21.0807 18.4254C21.0807 18.2349 21.0172 18.1079 20.8902 17.9809C19.6838 16.711 18.0964 16.076 16.3185 16.076ZM12.0007 10.9963C13.5246 12.9012 13.5246 15.5681 12.0642 17.5364C11.3658 16.584 10.9213 15.5046 10.9213 14.2981C10.9213 13.0917 11.3023 11.9488 12.0007 10.9963ZM16.255 19.5683C15.112 19.5683 13.9691 19.1873 13.0167 18.4889C13.9691 17.7269 15.112 17.3459 16.3185 17.3459C17.5249 17.3459 18.6043 17.7269 19.5568 18.4254C18.6043 19.1238 17.4614 19.5683 16.255 19.5683Z" fill="#440D0F"/>
<path d="M12.1277 20.3302C11.3658 20.3302 10.6038 20.4572 9.84186 20.7112C10.0958 20.0127 10.2228 19.2507 10.2228 18.4888C10.2228 16.7109 9.52438 15.06 8.25446 13.8536C8.00048 13.5996 7.6195 13.5996 7.36552 13.8536C6.15909 15.1235 5.46063 16.7744 5.46063 18.5523C5.46063 20.3302 6.15909 21.9176 7.42901 23.1875C8.69893 24.3939 10.2863 25.0289 12.0642 25.0289C13.8421 25.0289 15.5565 24.3304 16.7629 23.0605C16.8899 22.9335 16.9534 22.8065 16.9534 22.616C16.9534 22.4255 16.8899 22.2986 16.7629 22.1716C15.5565 20.9651 13.9056 20.3302 12.1277 20.3302ZM7.80999 15.2505C8.57194 16.2029 8.95292 17.2824 8.95292 18.4888C8.95292 19.6952 8.57194 20.8381 7.87348 21.7271C7.17503 20.7747 6.73055 19.6952 6.73055 18.4888C6.73055 17.3459 7.11153 16.2029 7.80999 15.2505ZM12.0642 23.8225C10.8578 23.8225 9.77837 23.4415 8.82593 22.743C9.77837 21.9811 10.9213 21.6001 12.1277 21.6001C13.2707 21.6001 14.4136 21.9811 15.366 22.6795C14.4136 23.378 13.2707 23.8225 12.0642 23.8225Z" fill="#440D0F"/>
<path d="M8.00051 24.5845C7.23856 24.5845 6.4766 24.7114 5.71465 24.9654C5.96863 24.267 6.09563 23.505 6.09563 22.7431C6.09563 20.9652 5.39717 19.3143 4.12725 18.1078C3.87326 17.8539 3.49229 17.8539 3.2383 18.1078C0.888945 20.5207 0.761953 24.3305 2.79383 26.8703C2.34936 27.2513 1.39691 28.1402 0.190488 29.4102C-0.0634961 29.6641 -0.0634961 30.0451 0.190488 30.2991C0.317481 30.4261 0.444473 30.4896 0.634961 30.4896C0.825449 30.4896 0.952442 30.4261 1.07943 30.2991C2.34936 28.9657 3.3018 28.1402 3.68277 27.8228C4.8892 28.8387 6.34961 29.3467 7.87352 29.3467C9.65141 29.3467 11.3658 28.6482 12.5722 27.3783C12.8262 27.1243 12.8262 26.7433 12.5722 26.4893C11.3658 25.2194 9.71491 24.5845 8.00051 24.5845ZM3.68277 19.5048C4.38123 20.4572 4.8257 21.5366 4.8257 22.7431C4.8257 23.9495 4.44473 25.0924 3.74627 25.9814C2.22236 24.14 2.22236 21.4731 3.68277 19.5048ZM7.87352 28.0767C6.73059 28.0767 5.58766 27.6958 4.63522 26.9973C5.58766 26.2353 6.73059 25.8544 7.93701 25.8544C9.07994 25.8544 10.2229 26.2354 11.1753 26.9338C10.2864 27.6323 9.14344 28.0767 7.87352 28.0767Z" fill="#440D0F"/>
<path d="M20.1282 6.80556C20.3187 6.80556 20.4457 6.74206 20.5727 6.61507L26.0968 1.09091C26.3508 0.836924 26.3508 0.455947 26.0968 0.201963C25.8428 -0.0520215 25.4619 -0.0520215 25.2079 0.201963L19.6837 5.72613C19.4297 5.98011 19.4297 6.36109 19.6837 6.61507C19.8107 6.74206 20.0012 6.80556 20.1282 6.80556Z" fill="#440D0F"/>
<path d="M20.3188 10.1709C20.4458 10.2979 20.6363 10.3614 20.7633 10.3614C20.8902 10.3614 21.0807 10.2979 21.2077 10.1709L29.7162 1.72592C29.9702 1.47193 29.9702 1.09096 29.7162 0.836973C29.4622 0.582988 29.0812 0.582988 28.8273 0.836973L20.3188 9.28196C20.0648 9.53594 20.0648 9.91692 20.3188 10.1709Z" fill="#440D0F"/>
<path d="M30.2877 4.39264C30.0337 4.13865 29.6527 4.13865 29.3987 4.39264L23.8746 9.9168C23.6206 10.1708 23.6206 10.5518 23.8746 10.8057C24.0016 10.9327 24.1921 10.9962 24.319 10.9962C24.5095 10.9962 24.6365 10.9327 24.7635 10.8057L30.2877 5.28158C30.5417 5.0276 30.5417 4.64662 30.2877 4.39264Z" fill="#440D0F"/>
</svg>
