<svg width="34" height="29" viewBox="0 0 34 29" fill="none" xmlns="http://www.w3.org/2000/svg">
<path d="M17.2135 18.9523L11.6932 14.5296C11.616 14.4654 11.5214 14.4257 11.4216 14.4155L3.87464 13.4375C3.80623 13.4268 3.73657 13.4268 3.66817 13.4375C3.58469 13.4594 3.50763 13.5009 3.44338 13.5585C3.37913 13.6162 3.32953 13.6883 3.2987 13.7689L0.0386924 22.1797C-0.00386374 22.2864 -0.0115374 22.4037 0.016771 22.515C0.0450794 22.6263 0.107915 22.7258 0.19626 22.7991L5.46117 27.1458H5.48834H5.54267C5.59008 27.1733 5.64137 27.1934 5.69481 27.2056H5.73284L13.546 28.2922H13.6166C13.727 28.293 13.835 28.2601 13.9262 28.198C14.0175 28.1359 14.0876 28.0475 14.1274 27.9445L17.3874 19.5282C17.4334 19.4215 17.4413 19.3022 17.4096 19.1903C17.3779 19.0785 17.3087 18.981 17.2135 18.9143V18.9523ZM15.0021 18.5665L9.29168 17.7841L5.61331 14.7578L11.1336 15.4695L15.0021 18.5665ZM4.04307 14.8719L8.38975 18.4742L5.59157 25.8201L1.19056 22.2177L4.04307 14.8719ZM13.2798 27.1893L6.58044 26.2547L6.64564 26.0917L9.41665 18.8817L16.1268 19.7999L13.2798 27.1893ZM33.2473 14.535C33.2417 14.4511 33.2167 14.3696 33.1743 14.297C33.1319 14.2244 33.0732 14.1627 33.0028 14.1166C32.944 14.0877 32.882 14.0658 32.8181 14.0514V14.0514L26.5154 12.704C26.4181 12.6738 26.3139 12.6738 26.2166 12.704L19.5987 15.1272C19.5361 15.1482 19.4773 15.1794 19.4249 15.2196C19.3611 15.2752 19.3112 15.3449 19.2791 15.4232C19.247 15.5015 19.2337 15.5862 19.2401 15.6706L19.8758 24.0814C19.8844 24.1968 19.9296 24.3065 20.0048 24.3945C20.0801 24.4824 20.1815 24.5441 20.2942 24.5704L26.3361 25.9505H26.4556C26.5186 25.9504 26.5811 25.9393 26.6404 25.9179L33.5081 23.4783C33.6196 23.4395 33.7154 23.3655 33.781 23.2675C33.8467 23.1695 33.8787 23.0528 33.8721 22.9349L33.2473 14.535ZM26.4393 13.8015L30.7045 14.7034L25.8145 16.4475L21.7232 15.5184L26.4393 13.8015ZM20.9299 23.6141L20.3866 16.328L25.3146 17.4527L25.858 24.7388L20.9299 23.6141ZM26.9446 24.7008L26.9012 24.0814L26.4013 17.3875L32.2095 15.3228L32.7529 22.6198L26.9446 24.7008ZM9.69918 10.0579L14.7739 12.3073C14.8409 12.3359 14.913 12.3506 14.9858 12.3508H15.0728L21.5547 11.2967C21.6702 11.2778 21.7765 11.2221 21.8577 11.1379C21.939 11.0537 21.9909 10.9455 22.0057 10.8294L22.9566 3.14126C22.9666 3.05776 22.957 2.97308 22.9288 2.89388C22.9005 2.81469 22.8542 2.74313 22.7935 2.68486C22.7482 2.63918 22.6922 2.60556 22.6305 2.58706V2.58706L17.3276 0.332224C17.2309 0.294381 17.1258 0.283124 17.0233 0.299623L10.775 1.35913C10.7125 1.36672 10.6519 1.3851 10.5957 1.41346C10.5223 1.45484 10.4596 1.5127 10.4125 1.58248C10.3653 1.65226 10.335 1.73204 10.324 1.81553L9.37862 9.49828C9.36527 9.61357 9.3892 9.7301 9.44688 9.8308C9.50457 9.93151 9.59299 10.0111 9.69918 10.0579V10.0579ZM20.9842 10.2861L15.6215 11.1554L16.4311 4.5974L21.7938 3.72263L20.9842 10.2861ZM17.0559 1.38086L20.4844 2.837L16.0127 3.56506L12.7527 2.11436L17.0559 1.38086ZM11.3183 2.674L15.3553 4.45613L14.5403 11.0413L10.5088 9.25921L11.3183 2.674Z" fill="#440D0F"/>
</svg>
